<?xml version="1.0" encoding="utf-8"?>
<!-- Generator: Adobe Illustrator 18.1.1, SVG Export Plug-In . SVG Version: 6.00 Build 0)  -->
<svg version="1.1" id="Layer_1" xmlns="http://www.w3.org/2000/svg" xmlns:xlink="http://www.w3.org/1999/xlink" x="0px" y="0px"
	 viewBox="0 0 86.5 22" enable-background="new 0 0 86.5 22" xml:space="preserve">
<path fill="#4E4E56" d="M30.3,11c0,10.9,10.9,11,11.1,11v-3.3v1.7l0-1.7c-0.8,0-7.7-0.3-7.7-7.7H30.3z"/>
<path fill="#4E4E56" d="M41.4,3.4c0.8,0,7.7,0.3,7.7,7.7h3.3c0-10.9-10.9-11-11.1-11L41.4,3.4l0-1.7L41.4,3.4z"/>
<path fill="#4E4E56" d="M86.5,3.3V0C75.5,0,75.4,10.9,75.4,11l3.3,0C78.7,10.2,79,3.3,86.5,3.3"/>
<polygon fill="#4E4E56" points="70.2,17.1 66.9,17.1 66.9,9.4 59.2,9.4 59.2,6.1 70.2,6.1 "/>
<path fill="#4E4E56" d="M3,2.8C2.9,2.5,2.6,2.3,2.2,2.3C1.4,2.3,1,2.9,1,3.9c0,0.9,0.4,1.5,1.2,1.5c0.4,0,0.7-0.2,1-0.6l0.8,0.5
	C3.6,5.9,3,6.4,2.1,6.4C0.9,6.4,0,5.4,0,3.9c0-1.5,0.9-2.5,2.2-2.5c0.9,0,1.5,0.4,1.8,1.1L3,2.8z"/>
<path fill="#4E4E56" d="M7,2.4H5.7v1.2H7c0.5,0,0.7-0.2,0.7-0.6C7.7,2.5,7.4,2.4,7,2.4 M7.6,6.3L6.7,4.5h-1v1.7h-1V1.4H7
	c0.9,0,1.7,0.5,1.7,1.5c0,0.7-0.3,1.2-0.9,1.4l0.9,1.9H7.6z"/>
<polygon fill="#4E4E56" points="9.6,6.3 9.6,1.4 13,1.4 13,2.4 10.6,2.4 10.6,3.2 12,3.2 12,4.2 10.6,4.2 10.6,5.3 13.1,5.3 
	13.1,6.3 "/>
<path fill="#4E4E56" d="M16.3,3.4c-0.1-0.3-0.2-0.6-0.2-0.8c0,0.2-0.1,0.5-0.2,0.8l-0.3,0.9h1.1L16.3,3.4z M17.3,6.3L17,5.2h-1.8
	l-0.4,1.1h-1l1.9-4.9h0.9l1.9,4.9H17.3z"/>
<polygon fill="#4E4E56" points="20.7,2.4 20.7,6.3 19.7,6.3 19.7,2.4 18.3,2.4 18.3,1.4 22.1,1.4 22.1,2.4 "/>
<rect x="22.9" y="1.4" fill="#4E4E56" width="1" height="4.9"/>
<path fill="#4E4E56" d="M28.1,6.3l-1.8-2.7C26.2,3.4,26,3.2,26,3.1c0,0.2,0,0.8,0,1.1v2.1h-1V1.4h0.9L27.7,4C27.8,4.2,28,4.4,28,4.5
	c0-0.2,0-0.8,0-1.1V1.4h1v4.9H28.1z"/>
<path fill="#4E4E56" d="M32,6.4c-1.3,0-2.1-1-2.1-2.5c0-1.5,0.9-2.5,2.2-2.5c1,0,1.5,0.5,1.8,1.2L33,2.9c-0.2-0.4-0.4-0.6-0.9-0.6
	c-0.7,0-1.1,0.6-1.1,1.5c0,0.9,0.4,1.6,1.2,1.6c0.7,0,0.9-0.3,1-0.7h-0.8V3.8H34v0.6C34,5.6,33.1,6.4,32,6.4"/>
</svg>
