<?xml version="1.0" encoding="utf-8"?>
<!-- Generator: Adobe Illustrator 18.1.1, SVG Export Plug-In . SVG Version: 6.00 Build 0)  -->
<svg version="1.1" id="Layer_1" xmlns="http://www.w3.org/2000/svg" xmlns:xlink="http://www.w3.org/1999/xlink" x="0px" y="0px"
	 viewBox="0 0 60.4 27.5" enable-background="new 0 0 60.4 27.5" xml:space="preserve">
<path fill="#A2A1A5" d="M53.9,14.5c-0.6,0.2-1.6,0.2-1.9-0.6c2-1.7,2.7-4.2,1.6-5.6c-1.1-1.4-3.6-1.4-5.7,0L47.6,6l-3.2,1.6l0.4,2.7
	c0.6-0.4,1.2-0.5,1.5-0.2c0.6,0.5,0.3,2-0.7,3.3c-0.1,0.1-0.2,0.3-0.3,0.4l0.5,3.4c0.4,1.8,2.1,1.9,2.7,1.9c2.9,0.3,8.6-3.4,8.6-7.7
	C57,11.6,56.5,13.7,53.9,14.5 M42.5,15.1c-0.6-0.5-0.3-2,0.7-3.3c0.2-0.2,0.3-0.4,0.5-0.6l-0.4-3l-6.4,3.2l1.4,9.7l6.4-3.2l-0.4-3.1
	C43.5,15.2,42.9,15.4,42.5,15.1 M32.9,0h27.5v27.5H32.9V0z"/>
<path fill="#4E4E56" d="M14.5,18.4c0-1.8-1.5-3.3-3.3-3.3h-1v6.5c0.3,0,0.7,0.1,1,0.1C13,21.6,14.5,20.2,14.5,18.4 M17.2,17.9l4,4.4
	h-0.8l-4-4.4l3.8-3.5v0.8L17.2,17.9z M16.3,22.2h-0.6v-7.7h0.6V22.2z M15.1,18.4c0,2.2-1.8,3.9-3.9,3.9c-0.4,0-0.8,0-1.1,0H9.6v-7.7
	h1.7C13.4,14.5,15.1,16.3,15.1,18.4 M27.4,20.7V0H-0.1v14.5h0l2.7,6.3l1.3-2.9L3.1,16l0-1.6l1.1,2.6l1.1-2.6l0,1.6l-0.8,1.8l1.3,2.9
	l2.7-6.3h0.7l-3.4,7.8l-1.6-3.7l-1.6,3.7L-0.1,16v11.5h27.5v-5.3l-1.1-2.5h-3.2l-1.1,2.6h-0.7l3.4-7.8L27.4,20.7z M24.7,15.9
	l-1.4,3.1H26L24.7,15.9z"/>
</svg>
