<?xml version="1.0" encoding="utf-8"?>
<!-- Generator: Adobe Illustrator 18.1.1, SVG Export Plug-In . SVG Version: 6.00 Build 0)  -->
<svg version="1.1" id="Layer_1" xmlns="http://www.w3.org/2000/svg" xmlns:xlink="http://www.w3.org/1999/xlink" x="0px" y="0px"
	 viewBox="0 0 209.6 208.9" enable-background="new 0 0 209.6 208.9" xml:space="preserve">
<path fill="#D0CFD1" d="M206.6,104.4c0-18.5-4.9-35.8-13.6-50.7l-18.9,10.9c6.8,11.7,10.7,25.3,10.7,39.9c0,14.5-3.9,28.1-10.7,39.9
	c-7,12.1-17.1,22.2-29.2,29.2c-11.7,6.8-25.3,10.7-39.9,10.7v21.7c18.5,0,35.8-5,50.7-13.6c15.4-8.9,28.2-21.7,37.2-37.1
	C201.7,140.2,206.6,122.9,206.6,104.4"/>
<path fill="#4E4E56" d="M178.1,159.6c0.5-0.2,1.2-0.7,1.8-1.5c0.8-1.2,1-2.5-0.2-3.3c-0.8-0.6-1.7-0.5-2.6,0.2l-0.9,0.7
	c-0.4,0.3-0.7,0.4-1.1,0.2c-0.4-0.3-0.3-0.8,0.1-1.3c0.5-0.7,1.1-1,1.8-1.3l-1.1-0.8c-0.6,0.3-1.2,0.7-1.6,1.4
	c-0.8,1.1-0.8,2.4,0.2,3.1c0.9,0.7,1.8,0.4,2.6-0.2l0.9-0.6c0.5-0.3,0.8-0.5,1.1-0.2c0.4,0.3,0.3,0.9-0.1,1.4
	c-0.5,0.7-1.2,1.1-1.9,1.4L178.1,159.6z"/>
<path fill="#4E4E56" d="M181.7,150.6c0.7,0.4,1,1.1,0.7,1.7c-0.4,0.6-1.1,0.6-1.8,0.2c-0.7-0.4-1-1.1-0.7-1.7
	C180.3,150.2,181,150.2,181.7,150.6z M182.4,149.4c-1.3-0.8-2.8-0.5-3.5,0.7c-0.8,1.2-0.4,2.7,1,3.5c1.3,0.8,2.8,0.5,3.5-0.7
	C184.2,151.6,183.8,150.2,182.4,149.4z"/>
<path fill="#4E4E56" d="M182.9,148.5c1.4,0.8,2.8,0.3,3.5-1c0.2-0.4,0.4-0.9,0.3-1.4l-1.1-0.6c0.1,0.4,0,0.9-0.2,1.3
	c-0.4,0.7-1.1,0.9-1.9,0.5c-0.8-0.4-1-1.2-0.6-1.8c0.2-0.4,0.5-0.7,1-0.8l-1.1-0.6c-0.4,0.2-0.8,0.6-1,1
	C181.2,146.3,181.5,147.8,182.9,148.5z"/>
<path fill="#4E4E56" d="M182.5,140.8c-0.4-0.2-0.9,0-1.1,0.4c-0.2,0.4-0.1,0.9,0.4,1.1c0.4,0.2,0.9,0,1.1-0.4
	C183.1,141.4,182.9,141,182.5,140.8z M183.8,141.5l-0.6,1.3l4.5,2.2l0.6-1.3L183.8,141.5z"/>
<path fill="#4E4E56" d="M188.8,139.1c0.2,0.2,0.2,0.6,0.1,1c-0.2,0.4-0.5,0.7-0.9,0.6c-0.4-0.2-0.4-0.7-0.2-1.1
	c0.2-0.4,0.5-0.6,0.8-0.6L188.8,139.1z M187.5,138.5c-0.2,0.1-0.5,0.5-0.7,0.9c-0.4,1-0.2,2,0.7,2.4c1,0.4,1.8-0.1,2.2-1.1
	c0.2-0.5,0.2-1,0.1-1.3l0.2,0.1l0.5-1.2l-2.9-1.3c-1.1-0.5-2.1,0-2.6,1.2c-0.3,0.6-0.3,1.3-0.3,1.7l1.1,0.5c-0.1-0.5,0-1,0.2-1.4
	c0.3-0.7,0.7-0.9,1.2-0.7L187.5,138.5z"/>
<rect x="187.3" y="131.2" transform="matrix(0.3486 -0.9373 0.9373 0.3486 -3.9503 264.0891)" fill="#4E4E56" width="1.4" height="7.3"/>
<polygon points="174.2,64.5 193.1,53.6 174.2,64.5 "/>
<polygon points="36.1,144.2 17.3,155.1 36.1,144.2 "/>
<path fill="#9A999E" d="M193.1,53.6c-8.9-15.4-21.8-28.2-37.2-37.1C141,7.9,123.7,2.9,105.2,2.9c-18.5,0-35.8,5-50.7,13.6
	C39,25.4,26.2,38.2,17.3,53.6l18.9,10.9c7-12.1,17.1-22.2,29.2-29.2c11.7-6.8,25.3-10.7,39.9-10.7c14.5,0,28.1,3.9,39.9,10.7
	c12.1,7,22.2,17.1,29.2,29.2L193.1,53.6z"/>
<path fill="#B5B4B7" d="M3.7,104.4c0,18.5,4.9,35.8,13.6,50.7l18.9-10.9c-6.8-11.7-10.7-25.3-10.7-39.9c0-14.5,3.9-28.1,10.7-39.9
	L17.3,53.6C8.6,68.6,3.7,85.9,3.7,104.4 M105.2,205.9v-21.7c-14.5,0-28.1-3.9-39.9-10.7c-12.1-7-22.2-17.1-29.2-29.2l-18.9,10.9
	c8.9,15.4,21.8,28.2,37.2,37.1C69.4,200.9,86.7,205.9,105.2,205.9"/>
<path fill="#807F85" d="M184.9,104.4c0-14.5-3.9-28.1-10.7-39.9l-50.2,29c1.9,3.2,2.9,6.9,2.9,10.9c0,4-1.1,7.7-2.9,10.9
	c-1.9,3.3-4.7,6-7.9,8c-3.2,1.9-6.9,2.9-10.9,2.9v58c14.5,0,28.1-3.9,39.9-10.7c12.1-7,22.2-17.1,29.2-29.2
	C181,132.5,184.9,118.9,184.9,104.4"/>
<rect x="149.1" y="50" width="0" height="58"/>
<g>
	<defs>
		<rect id="SVGID_1_" x="-435.7" y="-239.6" width="793.7" height="612.3"/>
	</defs>
	<clipPath id="SVGID_2_">
		<use xlink:href="#SVGID_1_"  overflow="visible"/>
	</clipPath>
	<path clip-path="url(#SVGID_2_)" fill="#4E4E56" d="M174.2,64.5c-7-12.1-17.1-22.2-29.2-29.2c-11.7-6.8-25.3-10.7-39.9-10.7
		c-14.5,0-28.1,3.9-39.9,10.7c-12.1,7-22.2,17.1-29.2,29.2l50.2,29c1.9-3.3,4.7-6,8-8c3.2-1.9,6.9-2.9,10.9-2.9
		c4,0,7.7,1.1,10.9,2.9c3.3,1.9,6,4.7,8,8L174.2,64.5z"/>
</g>
<rect x="32.2" y="129.7" transform="matrix(0.866 -0.5 0.5 0.866 -56.6669 48.0007)" width="58" height="0"/>
<path fill="#66666C" d="M86.3,115.2c-1.9-3.2-2.9-6.9-2.9-10.9c0-4,1.1-7.7,2.9-10.9l-50.2-29c-6.8,11.7-10.7,25.3-10.7,39.9
	c0,14.5,3.9,28.1,10.7,39.9L86.3,115.2z M105.2,184.1v-58c-4,0-7.7-1.1-10.9-2.9c-3.3-1.9-6-4.7-8-8l-50.2,29
	c7,12.1,17.1,22.2,29.2,29.2C77,180.2,90.6,184.1,105.2,184.1"/>
<polygon fill="#4E4E56" points="86.4,115.2 86.4,115.2 105.2,104.4 "/>
<polygon fill="#4E4E56" points="105.2,104.4 105.2,104.4 105.2,104.4 "/>
<polygon fill="#4E4E56" points="105.2,104.4 105.2,104.4 105.2,104.4 "/>
<polygon fill="#4E4E56" points="124,93.5 124,93.5 105.2,104.4 "/>
<polygon fill="#4E4E56" points="105.2,104.4 105.2,104.4 105.2,104.4 "/>
<path fill="#E4E2E3" d="M105.2,104.4L105.2,104.4L124,93.5c-1.9-3.3-4.7-6-8-8c-3.2-1.9-6.9-2.9-10.9-2.9c-4,0-7.7,1.1-10.9,2.9
	c-3.3,1.9-6,4.7-8,8c-1.9,3.2-2.9,6.9-2.9,10.9c0,4,1.1,7.7,2.9,10.9L105.2,104.4L105.2,104.4L105.2,104.4z M124,93.5l-18.8,10.9v0
	l0,0l-18.8,10.9c1.9,3.3,4.7,6,8,8c3.2,1.9,6.9,2.9,10.9,2.9c4,0,7.7-1.1,10.9-2.9c3.3-1.9,6-4.7,7.9-8c1.9-3.2,2.9-6.9,2.9-10.9
	C126.9,100.4,125.8,96.7,124,93.5"/>
<path fill="#4E4E56" d="M116.7,103.9h1c0.6,0,0.8,0.3,0.8,0.7c0,0.4-0.3,0.7-0.8,0.7h-1V103.9z M117.3,106.6l1.2,2h1.7l-1.4-2.1
	c0.7-0.3,1.2-0.9,1.2-1.8c0-1.3-0.9-2-2.2-2h-2.7v6h1.5v-2H117.3z M112.7,105.6c0,1-0.5,1.7-1.4,1.7c-0.8,0-1.3-0.7-1.3-1.7
	c0-1,0.5-1.7,1.3-1.7C112.2,103.9,112.7,104.5,112.7,105.6z M114.3,105.6c0-1.8-1.2-3.1-2.9-3.1c-1.7,0-2.9,1.3-2.9,3.1
	c0,1.8,1.2,3.1,2.9,3.1C113.1,108.6,114.3,107.3,114.3,105.6z M104.1,108.3c0.3,0.2,0.8,0.3,1.4,0.3c1.3,0,2.1-0.7,2.1-2.2v-3.9H106
	v3.6c0,0.7-0.2,1.1-0.8,1.1c-0.4,0-0.8-0.2-1.1-0.4V108.3z M100.5,104.4l0.6,1.7h-1.2L100.5,104.4z M99.7,102.6l-2.3,6H99l0.4-1.2
	h2.2l0.4,1.2h1.6l-2.3-6H99.7z M93.6,107.3l1.5-2.1v3.4h1.5v-6h-1.4l-1.6,2.4l-1.6-2.4h-1.4v6H92v-3.4L93.6,107.3L93.6,107.3z"/>
<path fill="#4E4E56" d="M77.2,16.5l1.5,1.9L77.1,19L77.2,16.5z M76,15.1l-0.4,7.4l1.4-0.4l0.1-1.8l2.5-0.8l1.1,1.4l1.4-0.5l-4.7-5.7
	L76,15.1z"/>
<path fill="#4E4E56" d="M86,14.3l-1.4,0.3l0.7,3.1c0,0.5-0.3,0.8-0.7,0.9c-0.5,0.1-0.9-0.2-1-0.7L83,15l-1.4,0.3l0.8,3.2
	c0.3,1.1,1.1,1.7,2.1,1.4c0.6-0.1,1-0.5,1.2-0.9l0.1,0.4l1.4-0.3L86,14.3z"/>
<polygon fill="#4E4E56" points="89.8,14.7 90.9,14.5 90.7,13.4 89.6,13.6 89.4,12.3 88,12.6 88.2,13.9 87.3,14.1 87.5,15.2 88.4,15 
	89.2,18.8 90.5,18.6 "/>
<path fill="#4E4E56" d="M95.5,15.3c0.1,0.8-0.2,1.5-0.9,1.6s-1.1-0.5-1.2-1.3c-0.1-0.8,0.2-1.5,0.9-1.6S95.4,14.5,95.5,15.3z
	 M96.9,15.2c-0.2-1.5-1.3-2.5-2.8-2.3s-2.3,1.4-2.1,2.9c0.2,1.5,1.3,2.5,2.8,2.3S97.1,16.7,96.9,15.2z"/>
<path fill="#4E4E56" d="M98.4,17.6l1.4-0.1l-0.2-3.2c0.1-0.4,0.4-0.7,0.9-0.7c0.6,0,0.8,0.3,0.9,0.8l0.2,3l1.4-0.1l-0.2-3.3
	c-0.1-1.1-0.7-1.8-1.9-1.8c-0.6,0-1.1,0.3-1.3,0.6l0-0.5l-1.4,0.1L98.4,17.6z"/>
<path fill="#4E4E56" d="M107.6,14.9c0,0.8-0.4,1.4-1.1,1.4c-0.7,0-1.1-0.6-1.1-1.4c0-0.8,0.4-1.4,1.1-1.4
	C107.3,13.4,107.6,14,107.6,14.9z M109,14.9c0-1.6-1-2.6-2.4-2.7s-2.5,1.1-2.5,2.6c0,1.5,1,2.6,2.4,2.6C108,17.5,109,16.4,109,14.9z
	"/>
<path fill="#4E4E56" d="M114.7,13.3c-0.2-0.4-0.7-0.7-1.3-0.8c-0.6-0.1-1,0.1-1.3,0.4l0-0.4l-1.4-0.1l-0.5,5l1.4,0.1l0.3-3.2
	c0.1-0.4,0.5-0.6,0.9-0.6c0.5,0.1,0.7,0.4,0.6,1l-0.3,3l1.4,0.2l0.3-3.2c0.1-0.4,0.5-0.6,0.8-0.6c0.5,0.1,0.7,0.4,0.6,1l-0.3,3
	l1.4,0.1l0.4-3.3c0.1-1.1-0.4-1.9-1.4-2C115.5,12.8,115,13,114.7,13.3z"/>
<path fill="#4E4E56" d="M122.4,16.5c-0.2,0.8-0.6,1.3-1.3,1.2c-0.7-0.1-0.9-0.8-0.8-1.6c0.2-0.8,0.6-1.4,1.3-1.2
	C122.3,15,122.6,15.7,122.4,16.5z M123.8,16.8c0.3-1.5-0.5-2.8-1.9-3c-1.4-0.3-2.6,0.6-2.9,2.1c-0.3,1.5,0.5,2.8,1.9,3
	C122.3,19.2,123.5,18.3,123.8,16.8z"/>
<path fill="#4E4E56" d="M130.1,15.7l-1.4-0.4l-0.8,3.1c-0.2,0.4-0.6,0.6-1,0.4c-0.5-0.1-0.7-0.6-0.6-1.1l0.8-2.9l-1.4-0.4l-0.8,3.2
	c-0.3,1.1,0.2,2,1.2,2.2c0.6,0.1,1.1,0,1.5-0.2l-0.1,0.4l1.4,0.4L130.1,15.7z"/>
<path fill="#4E4E56" d="M130.2,20.6c0.3,0.4,0.9,0.8,1.5,1c1.1,0.4,2.1,0.1,2.4-0.9c0.2-0.8,0-1.3-0.9-1.9l-0.5-0.3
	c-0.3-0.2-0.5-0.4-0.4-0.6c0.1-0.3,0.4-0.3,0.8-0.2c0.5,0.2,1,0.6,1.3,1.1l0.4-1.2c-0.3-0.4-0.8-0.7-1.4-0.9c-1.1-0.3-2.1,0-2.3,0.9
	c-0.3,0.8,0.1,1.4,0.9,1.9l0.4,0.3c0.3,0.2,0.5,0.4,0.4,0.6c-0.1,0.3-0.4,0.3-0.8,0.2c-0.5-0.2-1.1-0.6-1.4-1.2L130.2,20.6z"/>
<path fill="#4E4E56" d="M18.6,123.3c-2.1,0.5-3.1,2.3-2.6,4.2c0.2,0.7,0.5,1.3,1,1.6l1.4-0.4c-0.6-0.4-0.9-0.9-1.1-1.5
	c-0.3-1.2,0.3-2.2,1.7-2.5c1.3-0.3,2.4,0.2,2.7,1.4c0.2,0.6,0.1,1.2-0.2,1.8l1.4-0.4c0.2-0.5,0.3-1.1,0.1-1.9
	C22.4,123.8,20.7,122.7,18.6,123.3z"/>
<path fill="#4E4E56" d="M20.4,133.1c-0.8,0.3-1.5,0.1-1.7-0.6c-0.2-0.7,0.2-1.2,1-1.5c0.8-0.3,1.5-0.1,1.7,0.6
	C21.7,132.2,21.2,132.8,20.4,133.1z M20.9,134.4c1.5-0.5,2.2-1.8,1.7-3.2c-0.5-1.4-1.8-2-3.3-1.5c-1.5,0.5-2.2,1.8-1.7,3.2
	C18.1,134.2,19.4,134.9,20.9,134.4z"/>
<path fill="#4E4E56" d="M24.7,138.6c0.2-0.4,0.3-0.9,0.1-1.5c-0.2-0.5-0.6-0.9-1-1l0.4-0.2l-0.5-1.3l-4.6,2l0.5,1.3l3-1.3
	c0.4-0.1,0.8,0.1,0.9,0.5c0.2,0.4-0.1,0.8-0.6,1l-2.8,1.2l0.5,1.3l3-1.3c0.4-0.1,0.8,0.1,0.9,0.5c0.2,0.4-0.1,0.8-0.5,1l-2.8,1.2
	l0.5,1.3l3-1.3c1-0.4,1.5-1.3,1.1-2.2C25.6,139.1,25.2,138.8,24.7,138.6z"/>
<path fill="#4E4E56" d="M28.5,146.4c0.2-0.4,0.2-1-0.1-1.5c-0.3-0.5-0.7-0.8-1.1-0.9l0.4-0.2l-0.7-1.2l-4.4,2.4l0.7,1.2l2.8-1.5
	c0.4-0.1,0.8,0.1,0.9,0.4c0.2,0.4,0,0.8-0.5,1.1l-2.6,1.4l0.7,1.2l2.8-1.5c0.4-0.1,0.8,0.1,0.9,0.4c0.2,0.4,0,0.8-0.4,1.1l-2.6,1.4
	l0.7,1.2l2.9-1.6c1-0.5,1.3-1.4,0.8-2.3C29.5,146.8,29,146.5,28.5,146.4z"/>
<path fill="#4E4E56" d="M31.6,152.5c0.3,0.5,0.1,0.9-0.3,1.2l-1-1.6C30.9,151.9,31.4,152.1,31.6,152.5z M31.3,155.3l0.4-0.2
	c1.2-0.8,1.7-2,0.9-3.2c-0.8-1.1-2.2-1.4-3.5-0.5c-1.3,0.9-1.6,2.3-0.8,3.6c0.4,0.6,0.8,1,1.3,1.1l1-0.6c-0.5-0.2-0.9-0.5-1.2-1
	c-0.4-0.6-0.4-1.3,0.2-1.8L31.3,155.3z"/>
<path fill="#4E4E56" d="M36.2,157.1c0-0.1-0.1-0.3-0.2-0.5c-0.3-0.4-0.7-0.6-1.2-0.5l0.4-0.3l-0.8-1.1l-4,3l0.8,1.1l2.5-1.9
	c0.4-0.2,0.9,0,1.1,0.3c0.2,0.2,0.3,0.4,0.3,0.7L36.2,157.1z"/>
<path fill="#4E4E56" d="M34.7,159.4c-1.2,1-1.3,2.5-0.4,3.6c0.3,0.4,0.7,0.7,1.2,0.8l1-0.8c-0.4-0.1-0.8-0.3-1.1-0.6
	c-0.5-0.6-0.4-1.4,0.2-1.9c0.7-0.6,1.5-0.5,1.9,0.1c0.3,0.3,0.4,0.8,0.4,1.2l1-0.8c0-0.5-0.2-0.9-0.6-1.3
	C37.5,158.6,36,158.4,34.7,159.4z"/>
<path fill="#4E4E56" d="M42.1,161.9c0.3-0.3,0.3-0.8,0-1.1c-0.3-0.3-0.8-0.4-1.2-0.1c-0.3,0.3-0.3,0.8,0,1.2
	C41.3,162.2,41.8,162.2,42.1,161.9z M40.9,162.8l-0.9-1l-3.7,3.4l0.9,1L40.9,162.8z"/>
<path fill="#4E4E56" d="M41.3,168.4c-0.3,0.1-0.7,0-0.9-0.3c-0.3-0.3-0.5-0.8-0.2-1.1c0.3-0.3,0.8-0.1,1.1,0.2
	c0.3,0.3,0.4,0.7,0.3,0.9L41.3,168.4z M42.3,167.4c0-0.2-0.3-0.7-0.6-1c-0.8-0.8-1.8-0.9-2.5-0.2c-0.7,0.7-0.5,1.8,0.2,2.5
	c0.4,0.4,0.9,0.6,1.1,0.6l-0.2,0.2l1,0.9l2.3-2.3c0.9-0.9,0.8-1.9-0.2-2.9c-0.5-0.5-1.1-0.8-1.5-0.9l-0.8,0.9
	c0.5,0.1,0.9,0.3,1.3,0.7c0.5,0.5,0.6,1,0.2,1.4L42.3,167.4z"/>
<rect x="44.8" y="165.6" transform="matrix(0.744 0.6681 -0.6681 0.744 124.7236 12.9405)" fill="#4E4E56" width="1.4" height="7.3"/>
<path fill="#FFFFFF" d="M70.6,140.7c0.1,0.2,0,0.6-0.2,0.8c-0.4,0.4-0.9,0.3-1.4-0.1s-0.5-1-0.1-1.4c0.2-0.2,0.5-0.3,0.8-0.2
	L70.6,140.7z M71.2,141.3c0.4,0.4,0.3,0.9,0,1.3c-0.3,0.3-0.6,0.5-1.1,0.5l0.6,0.6c0.3-0.1,0.7-0.3,1-0.6c0.6-0.6,0.9-1.5,0.1-2.3
	l-2.1-2.1l-0.5,0.5l0.2,0.2c-0.2,0-0.6,0.1-0.8,0.3c-0.7,0.7-0.5,1.6,0.1,2.3s1.6,0.8,2.3,0.1C71,141.8,71.1,141.4,71.2,141.3
	L71.2,141.3z M67.2,145.5l0.5-0.5l-1.5-1.5c-0.2-0.3-0.1-0.6,0.1-0.9c0.3-0.3,0.6-0.3,0.9,0l1.4,1.4l0.5-0.5l-1.5-1.5
	c-0.5-0.5-1.2-0.6-1.7,0c-0.3,0.3-0.4,0.6-0.4,0.9l-0.2-0.2l-0.5,0.5L67.2,145.5z M63.6,143.1c-0.2-0.2-0.5-0.2-0.6,0
	s-0.2,0.5,0,0.6s0.5,0.2,0.6,0S63.8,143.3,63.6,143.1z M64.3,143.9l-0.5,0.5l2.3,2.3l0.5-0.5L64.3,143.9z M64.2,147.2
	c0.1,0.3,0,0.6-0.2,0.8c-0.4,0.4-1,0.3-1.4-0.1s-0.5-1-0.1-1.4c0.2-0.2,0.5-0.3,0.8-0.2L64.2,147.2z M64.9,147.9l0.5-0.5l-3.4-3.4
	l-0.5,0.5l1.3,1.3c-0.2,0-0.6,0.1-0.8,0.3c-0.7,0.7-0.5,1.6,0.1,2.3c0.7,0.7,1.6,0.8,2.3,0.1c0.3-0.3,0.4-0.6,0.3-0.8L64.9,147.9z
	 M60.8,152l0.5-0.5l-1.5-1.5c-0.2-0.3-0.1-0.6,0.1-0.9c0.3-0.3,0.6-0.3,0.9,0l1.4,1.4l0.5-0.5l-1.5-1.5c-0.5-0.5-1.2-0.6-1.7,0
	c-0.3,0.3-0.4,0.6-0.4,0.9l-0.2-0.2l-0.5,0.5L60.8,152z M59,152.5c0.1,0.2,0,0.5-0.2,0.7c-0.2,0.2-0.6,0.4-0.8,0.1
	c-0.2-0.2-0.1-0.6,0.2-0.8c0.2-0.2,0.5-0.3,0.7-0.2L59,152.5z M58.3,151.8c-0.2,0-0.5,0.2-0.7,0.4c-0.5,0.5-0.6,1.2-0.2,1.7
	c0.5,0.5,1.2,0.4,1.6-0.1c0.3-0.3,0.4-0.6,0.4-0.7l0.1,0.1l0.5-0.5l-1.5-1.5c-0.5-0.5-1.2-0.5-1.8,0.1c-0.3,0.3-0.5,0.7-0.5,0.9
	l0.5,0.5c0.1-0.3,0.2-0.6,0.4-0.9c0.3-0.3,0.7-0.4,1-0.1L58.3,151.8z M55.6,152.5c-0.1,0-0.2,0.1-0.3,0.2c-0.2,0.2-0.3,0.6-0.2,0.8
	l-0.2-0.2l-0.5,0.5l2.3,2.3l0.5-0.5l-1.5-1.5c-0.2-0.3-0.1-0.6,0.1-0.8c0.1-0.1,0.3-0.2,0.4-0.2L55.6,152.5z M52.9,157l0.7-0.7
	c0.4-0.4,0.7-0.4,1-0.1c0.3,0.3,0.3,0.7-0.1,1l-0.7,0.7L52.9,157z M52.5,156.6l-0.9-0.9l0.6-0.6c0.4-0.4,0.7-0.4,1-0.1
	s0.2,0.6-0.1,1L52.5,156.6z M53.9,155.5c0.2-0.3,0.1-0.8-0.3-1.1c-0.6-0.6-1.3-0.5-2,0.2l-1.1,1.1l3.2,3.2l1.2-1.2
	c0.7-0.7,0.8-1.4,0.2-2C54.9,155.4,54.3,155.3,53.9,155.5z"/>
<path fill="#FFFFFF" d="M64.3,118l0.7-0.2l-0.6-2.1c0-0.3,0.2-0.6,0.5-0.7c0.4-0.1,0.7,0.1,0.8,0.5l0.5,1.9l0.7-0.2l-0.6-2.1
	c-0.2-0.7-0.7-1.1-1.4-0.9c-0.4,0.1-0.6,0.4-0.8,0.6l-0.1-0.3l-0.7,0.2L64.3,118z M62.4,117.5c-0.1,0.2-0.3,0.5-0.6,0.6
	c-0.6,0.1-1-0.2-1.1-0.8c-0.2-0.6,0-1.1,0.6-1.2c0.3-0.1,0.6,0,0.8,0.2L62.4,117.5z M62.6,118.3c0.2,0.6-0.2,1-0.7,1.1
	c-0.4,0.1-0.8,0.1-1.2-0.1L61,120c0.3,0.1,0.7,0.1,1.1,0c0.8-0.2,1.5-0.8,1.2-2l-0.8-2.9l-0.7,0.2l0.1,0.3c-0.2-0.1-0.5-0.2-0.9-0.1
	c-0.9,0.3-1.3,1.2-1,2c0.2,0.9,1,1.5,1.9,1.2c0.4-0.1,0.6-0.3,0.7-0.5L62.6,118.3z M58.7,115.1c-0.1-0.2-0.3-0.4-0.6-0.3
	c-0.2,0.1-0.4,0.3-0.3,0.6s0.3,0.4,0.6,0.3C58.6,115.6,58.8,115.3,58.7,115.1z M58.9,116.1l-0.7,0.2l0.9,3.2l0.7-0.2L58.9,116.1z
	 M55.9,120c0.3,0.1,0.8,0.2,1.2,0c0.7-0.2,1.2-0.7,1-1.3c-0.1-0.5-0.5-0.7-1.1-0.7l-0.4,0c-0.3,0-0.5,0-0.5-0.3
	c-0.1-0.2,0.1-0.4,0.4-0.5c0.4-0.1,0.7,0,1.1,0.2l-0.2-0.7c-0.3-0.1-0.7-0.1-1,0c-0.7,0.2-1.1,0.7-0.9,1.3c0.1,0.5,0.5,0.7,1.1,0.7
	l0.4,0c0.3,0,0.5,0.1,0.5,0.3c0.1,0.2-0.2,0.4-0.5,0.5c-0.4,0.1-0.8,0-1.2-0.2L55.9,120z M53.4,118.1c0.4-0.1,0.7,0.1,0.8,0.5
	l-1.4,0.4C52.8,118.5,53.1,118.2,53.4,118.1z M55,119l-0.1-0.3c-0.2-0.9-0.9-1.4-1.8-1.2c-0.9,0.2-1.3,1.1-1,2.1
	c0.3,1,1.1,1.5,2,1.2c0.4-0.1,0.7-0.3,0.9-0.6l-0.2-0.6c-0.2,0.3-0.5,0.4-0.8,0.5c-0.5,0.1-1,0-1.2-0.6L55,119z M48.5,122.3l1.5-0.4
	c1.3-0.3,1.9-1.4,1.5-2.8c-0.4-1.3-1.4-2-2.7-1.6l-1.5,0.4L48.5,122.3z M49.1,121.4l-0.8-3.1l0.7-0.2c0.9-0.2,1.6,0.2,1.8,1.2
	c0.3,0.9-0.1,1.7-1,1.9L49.1,121.4z M45.1,122.3c0,0.2-0.3,0.4-0.6,0.5c-0.3,0.1-0.7,0-0.8-0.3c-0.1-0.3,0.2-0.5,0.5-0.6
	c0.3-0.1,0.6,0,0.7,0.1L45.1,122.3z M44.8,121.3c-0.2-0.1-0.5-0.1-0.8,0c-0.7,0.2-1.1,0.8-1,1.4c0.2,0.7,0.8,0.9,1.5,0.7
	c0.4-0.1,0.6-0.3,0.7-0.4l0,0.2l0.7-0.2l-0.6-2.1c-0.2-0.7-0.8-1-1.6-0.8c-0.4,0.1-0.8,0.3-0.9,0.5l0.2,0.7c0.2-0.2,0.5-0.4,0.8-0.5
	c0.4-0.1,0.8,0,0.9,0.4L44.8,121.3z M41.6,121.3l0.7-0.2l-0.2-0.6l-0.7,0.2l-0.2-0.9l-0.7,0.2l0.2,0.9l-0.6,0.2l0.2,0.6l0.6-0.2
	l0.7,2.6l0.7-0.2L41.6,121.3z M39.5,123.8c0,0.2-0.3,0.4-0.6,0.5c-0.3,0.1-0.7,0-0.8-0.3c-0.1-0.3,0.2-0.5,0.5-0.6
	c0.3-0.1,0.6,0,0.7,0.1L39.5,123.8z M39.3,122.8c-0.2-0.1-0.5-0.1-0.8,0c-0.7,0.2-1.1,0.8-1,1.4c0.2,0.7,0.8,0.9,1.5,0.7
	c0.4-0.1,0.6-0.3,0.7-0.4l0,0.2l0.7-0.2l-0.6-2.1c-0.2-0.7-0.8-1-1.6-0.8c-0.4,0.1-0.8,0.3-0.9,0.5l0.2,0.7c0.2-0.2,0.5-0.4,0.8-0.5
	c0.4-0.1,0.8,0,0.9,0.4L39.3,122.8z M33.7,126.2l1.5-0.4c1.3-0.3,1.9-1.4,1.5-2.8c-0.4-1.3-1.4-2-2.7-1.6l-1.5,0.4L33.7,126.2z
	 M34.3,125.4l-0.8-3.1l0.7-0.2c0.9-0.2,1.6,0.2,1.8,1.2c0.3,0.9-0.1,1.7-1,1.9L34.3,125.4z"/>
<path fill="#FFFFFF" d="M70.4,97.4l0.7,0.2l0.6-2.1c0.2-0.3,0.5-0.4,0.8-0.3c0.4,0.1,0.5,0.4,0.4,0.8L72.4,98l0.7,0.2l0.6-2.1
	c0.2-0.7-0.1-1.3-0.8-1.5c-0.4-0.1-0.7,0-1,0.1l0.1-0.3l-0.7-0.2L70.4,97.4z M69.1,96c-0.2,0.2-0.5,0.3-0.8,0.2
	c-0.6-0.1-0.8-0.7-0.6-1.2s0.6-0.9,1.1-0.8c0.3,0.1,0.5,0.3,0.6,0.6L69.1,96z M68.9,96.8c-0.2,0.6-0.6,0.8-1.2,0.6
	c-0.4-0.1-0.7-0.3-1-0.7l-0.2,0.8c0.2,0.2,0.6,0.4,1,0.6c0.8,0.2,1.7,0,2-1.1l0.8-2.9l-0.7-0.2l-0.1,0.3c-0.1-0.2-0.4-0.4-0.7-0.5
	c-0.9-0.3-1.7,0.4-1.9,1.2c-0.2,0.9,0.1,1.8,1,2c0.4,0.1,0.7,0,0.9-0.1L68.9,96.8z M67.1,92.1c0.1-0.2-0.1-0.5-0.3-0.6
	c-0.2-0.1-0.5,0.1-0.6,0.3s0.1,0.5,0.3,0.6C66.8,92.5,67,92.3,67.1,92.1z M66.7,93L66,92.8L65.2,96l0.7,0.2L66.7,93z M62.2,94.9
	c0.2,0.3,0.6,0.5,1,0.6c0.7,0.2,1.3,0,1.5-0.6c0.1-0.5-0.1-0.8-0.6-1.2l-0.4-0.2c-0.2-0.2-0.4-0.3-0.3-0.5c0.1-0.2,0.3-0.3,0.6-0.2
	c0.4,0.1,0.6,0.4,0.8,0.7l0.2-0.7c-0.2-0.3-0.5-0.4-0.9-0.5c-0.7-0.2-1.3,0.1-1.5,0.6c-0.1,0.5,0.1,0.9,0.6,1.2l0.3,0.2
	c0.2,0.1,0.4,0.3,0.3,0.5c-0.1,0.2-0.3,0.3-0.6,0.2c-0.4-0.1-0.7-0.4-0.9-0.8L62.2,94.9z M61,92.1c0.4,0.1,0.6,0.5,0.5,0.8l-1.4-0.4
	C60.3,92.1,60.7,92,61,92.1z M62,93.6l0.1-0.3c0.2-0.9,0-1.7-0.9-1.9c-0.9-0.2-1.6,0.3-1.9,1.3c-0.3,1,0.2,1.8,1.1,2.1
	c0.4,0.1,0.8,0.1,1.1,0l0.2-0.6c-0.4,0.1-0.6,0.1-1,0c-0.5-0.1-0.9-0.5-0.7-1.2L62,93.6z M54.7,93.2l1.5,0.4
	c1.3,0.3,2.4-0.3,2.7-1.6c0.4-1.3-0.2-2.4-1.5-2.8l-1.5-0.4L54.7,93.2z M55.6,92.7l0.8-3.1l0.7,0.2c0.9,0.2,1.3,1,1,1.9
	c-0.3,0.9-0.9,1.4-1.8,1.2L55.6,92.7z M51.7,89.6c0.4,0.1,0.6,0.5,0.5,0.8l-1.4-0.4C51.1,89.6,51.4,89.5,51.7,89.6z M52.7,91.2
	l0.1-0.3c0.2-0.9,0-1.7-0.9-1.9c-0.9-0.2-1.6,0.3-1.9,1.3c-0.3,1,0.2,1.8,1.1,2.1c0.4,0.1,0.8,0.1,1.1,0l0.2-0.6
	c-0.4,0.1-0.6,0.1-1,0c-0.5-0.1-0.9-0.5-0.7-1.2L52.7,91.2z M47.1,89.5c-0.3,1,0.3,1.9,1.1,2.1c0.3,0.1,0.6,0.1,0.9,0l0.2-0.7
	C49,91,48.7,91,48.4,90.9c-0.5-0.1-0.8-0.6-0.6-1.3s0.7-0.9,1.2-0.8c0.3,0.1,0.6,0.3,0.7,0.5l0.2-0.7c-0.2-0.3-0.5-0.4-0.8-0.5
	C48.2,88,47.3,88.4,47.1,89.5z M47.2,86.8c0.1-0.2-0.1-0.5-0.3-0.6c-0.2-0.1-0.5,0.1-0.6,0.3s0.1,0.5,0.3,0.6
	C46.8,87.1,47.1,87,47.2,86.8z M46.8,87.7l-0.7-0.2l-0.9,3.2l0.7,0.2L46.8,87.7z M43.5,90.2l2.1-2.9l-0.7-0.2l-1.4,2.1l-0.2-2.5
	l-0.8-0.2l0.3,3.5L43.5,90.2z M42,86.4c0,0-0.2-0.1-0.3-0.2c-0.3-0.1-0.6,0-0.8,0.2l0.1-0.3l-0.7-0.2l-0.9,3.2l0.7,0.2l0.6-2.1
	c0.2-0.3,0.5-0.4,0.8-0.3c0.2,0,0.3,0.1,0.4,0.2L42,86.4z M38.1,85.9c0.4,0.1,0.6,0.5,0.5,0.8l-1.4-0.4
	C37.4,85.9,37.8,85.8,38.1,85.9z M39.1,87.5l0.1-0.3c0.2-0.9,0-1.7-0.9-1.9c-0.9-0.2-1.6,0.3-1.9,1.3c-0.3,1,0.2,1.8,1.1,2.1
	c0.4,0.1,0.8,0.1,1.1,0l0.2-0.6c-0.4,0.1-0.6,0.1-1,0c-0.5-0.1-0.9-0.5-0.7-1.2L39.1,87.5z M32.5,86.9c0.3,0.3,0.7,0.6,1.3,0.8
	c0.9,0.2,1.7,0,1.9-0.8c0.2-0.6,0-1.1-0.7-1.5l-0.6-0.4c-0.3-0.2-0.5-0.4-0.4-0.7c0.1-0.4,0.5-0.4,0.9-0.3c0.5,0.1,0.9,0.4,1.2,0.8
	l0.2-0.8c-0.3-0.3-0.7-0.6-1.2-0.7c-0.8-0.2-1.6,0-1.8,0.8c-0.2,0.7,0.2,1.2,0.7,1.5l0.6,0.4c0.4,0.3,0.5,0.5,0.4,0.8
	c-0.1,0.4-0.5,0.5-1,0.3c-0.5-0.1-0.9-0.5-1.3-0.9L32.5,86.9z"/>
<path fill="#FFFFFF" d="M79.4,81.5c0,0.3,0.2,0.7,0.5,1c0.5,0.5,1.2,0.7,1.6,0.2c0.4-0.4,0.4-0.8,0.1-1.3l-0.2-0.4
	c-0.1-0.3-0.2-0.4,0-0.6c0.2-0.2,0.4-0.1,0.6,0.1c0.3,0.3,0.4,0.6,0.4,1l0.5-0.5c-0.1-0.3-0.2-0.6-0.5-0.9c-0.5-0.5-1.1-0.6-1.6-0.2
	c-0.4,0.4-0.3,0.8-0.1,1.3l0.2,0.3c0.1,0.2,0.2,0.4,0,0.6c-0.2,0.2-0.4,0.1-0.7-0.2C80.1,81.8,80,81.4,80,81L79.4,81.5z M79.8,78.4
	c0.3,0.3,0.3,0.7,0,1l-1-1C79.2,78.1,79.6,78.2,79.8,78.4z M79.9,80.3l0.2-0.2c0.7-0.7,0.8-1.5,0.2-2.1c-0.6-0.6-1.6-0.6-2.3,0.2
	c-0.7,0.7-0.7,1.7,0,2.4c0.3,0.3,0.6,0.5,0.9,0.5l0.5-0.5c-0.4-0.1-0.6-0.2-0.9-0.5c-0.4-0.4-0.5-0.9-0.1-1.4L79.9,80.3z M79.4,75.8
	c0.2-0.2,0.2-0.5,0-0.6s-0.5-0.2-0.6,0s-0.2,0.5,0,0.6S79.2,76,79.4,75.8z M78.6,76.4l-0.5-0.5l-2.3,2.3l0.5,0.5L78.6,76.4z
	 M75.3,76.3c-0.3,0.1-0.6,0-0.8-0.2c-0.4-0.4-0.3-1,0.1-1.4s1-0.5,1.4-0.1c0.2,0.2,0.3,0.5,0.2,0.8L75.3,76.3z M74.6,77.1l0.5,0.5
	l3.4-3.4L78,73.7l-1.3,1.3c0-0.2-0.1-0.6-0.3-0.8c-0.7-0.7-1.6-0.5-2.3,0.1c-0.7,0.7-0.8,1.6-0.1,2.3c0.3,0.3,0.6,0.4,0.8,0.3
	L74.6,77.1z M74.8,72.6L74.2,72l-1.5,1.5c-0.3,0.2-0.6,0.1-0.9-0.1c-0.3-0.3-0.2-0.6,0-0.9l1.4-1.4l-0.5-0.5l-1.5,1.5
	c-0.5,0.5-0.6,1.2,0,1.7c0.3,0.3,0.6,0.4,0.9,0.4l-0.2,0.2l0.5,0.5L74.8,72.6z M71.4,70.1l0.5,0.5l0.4-0.4l-0.5-0.5l0.6-0.6
	l-0.5-0.5l-0.6,0.6l-0.5-0.5l-0.4,0.4l0.5,0.5L69,71.5l0.5,0.5L71.4,70.1z M66.3,68.3c0.1,0.4,0.3,0.9,0.7,1.3
	c0.7,0.7,1.5,0.8,2.1,0.2c0.5-0.5,0.5-1,0.2-1.7l-0.3-0.7c-0.2-0.4-0.2-0.6,0-0.8c0.3-0.3,0.6-0.1,1,0.2c0.4,0.4,0.5,0.8,0.6,1.3
	l0.6-0.6c-0.1-0.4-0.3-0.9-0.7-1.2c-0.6-0.6-1.4-0.8-2-0.2c-0.5,0.5-0.4,1.1-0.2,1.7l0.3,0.6c0.2,0.4,0.2,0.7,0,0.9
	c-0.3,0.3-0.7,0.2-1-0.2c-0.4-0.4-0.6-0.9-0.7-1.4L66.3,68.3z M67.7,63.4l-0.5-0.5l-3.4,3.4l0.5,0.5L67.7,63.4z M63.3,64.5
	c-0.2,0.1-0.5,0-0.7-0.2c-0.2-0.2-0.4-0.6-0.1-0.8c0.2-0.2,0.6-0.1,0.8,0.2c0.2,0.2,0.3,0.5,0.2,0.7L63.3,64.5z M64,63.8
	c0-0.2-0.2-0.5-0.4-0.7c-0.5-0.5-1.2-0.6-1.7-0.2c-0.5,0.5-0.4,1.2,0.1,1.6c0.3,0.3,0.6,0.4,0.7,0.4l-0.1,0.1l0.5,0.5l1.5-1.5
	c0.5-0.5,0.5-1.2-0.1-1.8c-0.3-0.3-0.7-0.5-0.9-0.5l-0.5,0.5c0.3,0.1,0.6,0.2,0.9,0.4c0.3,0.3,0.4,0.7,0.1,1L64,63.8z M60.2,60.4
	c-0.8,0.8-0.7,1.7-0.1,2.4c0.2,0.2,0.5,0.4,0.8,0.4l0.5-0.5c-0.3,0-0.6-0.1-0.8-0.4c-0.4-0.4-0.4-1,0.1-1.4s1-0.5,1.4-0.1
	c0.2,0.2,0.4,0.5,0.4,0.8l0.5-0.5c0-0.3-0.2-0.6-0.4-0.8C62,59.7,61,59.6,60.2,60.4z M61.7,58.1c0.2-0.2,0.2-0.5,0-0.6
	s-0.5-0.2-0.6,0s-0.2,0.5,0,0.6S61.5,58.3,61.7,58.1z M60.9,58.7l-0.5-0.5l-2.3,2.3l0.5,0.5L60.9,58.7z M59,57.7l0.5,0.5l0.4-0.4
	l-0.5-0.5l0.6-0.6l-0.5-0.5l-0.6,0.6l-0.5-0.5L58,56.7l0.5,0.5L56.6,59l0.5,0.5L59,57.7z M58.7,55.1c0.2-0.2,0.2-0.5,0-0.6
	s-0.5-0.2-0.6,0s-0.2,0.5,0,0.6S58.6,55.3,58.7,55.1z M58,55.8l-0.5-0.5l-2.3,2.3l0.5,0.5L58,55.8z M57,54.8c0-0.1-0.1-0.2-0.2-0.3
	c-0.2-0.2-0.6-0.3-0.8-0.2l0.2-0.2l-0.5-0.5l-2.3,2.3l0.5,0.5l1.5-1.5c0.3-0.2,0.6-0.1,0.8,0.1c0.1,0.1,0.2,0.3,0.2,0.4L57,54.8z
	 M51.9,51.2c-1,1-1,2.3-0.1,3.2c0.4,0.4,0.8,0.5,1.1,0.6l0.6-0.6c-0.5,0-0.9-0.2-1.2-0.5c-0.6-0.6-0.5-1.5,0.2-2.2
	c0.7-0.7,1.6-0.8,2.2-0.2c0.3,0.3,0.5,0.7,0.5,1.2l0.6-0.6c0-0.4-0.2-0.8-0.6-1.1C54.3,50.2,52.9,50.2,51.9,51.2z"/>
<path fill="#FFFFFF" d="M97.8,74.8c0.1,0.4-0.1,0.7-0.5,0.8L97,74.3C97.5,74.3,97.7,74.5,97.8,74.8z M97,76.5l0.3-0.1
	c0.9-0.2,1.4-0.9,1.2-1.8c-0.2-0.9-1.1-1.3-2.1-1c-1,0.3-1.5,1.1-1.2,2c0.1,0.4,0.3,0.7,0.6,0.9l0.6-0.2c-0.3-0.2-0.4-0.5-0.5-0.8
	c-0.1-0.5,0-1,0.6-1.2L97,76.5z M97.1,72.3l0.2,0.7l0.6-0.2l-0.2-0.7l0.9-0.2l-0.2-0.7l-0.9,0.2l-0.2-0.6L96.7,71l0.2,0.6l-2.6,0.7
	l0.2,0.7L97.1,72.3z M94.7,70.2c-0.2,0-0.4-0.3-0.5-0.6c-0.1-0.3,0-0.7,0.3-0.8c0.3-0.1,0.5,0.2,0.6,0.5c0.1,0.3,0,0.6-0.1,0.7
	L94.7,70.2z M95.6,70c0.1-0.2,0.1-0.5,0-0.8c-0.2-0.7-0.8-1.1-1.4-1c-0.7,0.2-0.9,0.8-0.7,1.5c0.1,0.4,0.3,0.6,0.4,0.7l-0.2,0
	l0.2,0.7l2.1-0.6c0.7-0.2,1-0.8,0.8-1.6c-0.1-0.4-0.3-0.8-0.5-0.9l-0.7,0.2c0.2,0.2,0.4,0.5,0.5,0.8c0.1,0.4,0,0.8-0.4,0.9L95.6,70z
	 M92.9,67l3.5,0.4l-0.2-0.7l-2.5-0.2l2.1-1.4l-0.2-0.8l-2.9,2.1L92.9,67z M96.4,63.4c0.2-0.1,0.4-0.3,0.3-0.6
	c-0.1-0.2-0.3-0.4-0.6-0.3c-0.2,0.1-0.4,0.3-0.3,0.6C95.9,63.3,96.1,63.5,96.4,63.4z M95.4,63.6l-0.2-0.7L92,63.7l0.2,0.7L95.4,63.6
	z M95,62.2c0-0.1,0-0.2,0-0.4c-0.1-0.3-0.3-0.5-0.6-0.6l0.3-0.1l-0.2-0.7l-3.2,0.9l0.2,0.7l2.1-0.6c0.4,0,0.6,0.2,0.7,0.5
	c0,0.2,0.1,0.3,0,0.5L95,62.2z M94,59.1c-0.4,0.1-0.8-0.1-0.9-0.6l-0.3-0.9l1.5-0.4l0.3,0.9C94.7,58.6,94.4,59,94,59.1z M92.4,58.7
	c0.2,0.9,0.9,1.4,1.8,1.1c0.9-0.2,1.2-1,1-1.9l-0.5-1.7l-4.4,1.2l0.2,0.7l1.6-0.4L92.4,58.7z M89.6,52.6c-0.1-0.5,0.1-0.9,0.6-1
	c0.3-0.1,0.7,0,0.9,0.3l-0.9,1.4C89.9,53.2,89.7,53,89.6,52.6z M93,52c0.1,0.4,0,0.7-0.2,1.1l0.7-0.2c0.1-0.3,0.1-0.7,0-1
	c-0.2-0.7-0.8-1.1-1.5-1c-0.4,0.1-0.6,0.3-0.8,0.6C91,51,90.5,50.8,90,51c-0.8,0.2-1.2,1-1,1.8c0.1,0.5,0.4,0.8,0.8,1.1l-0.3,0.5
	l0.2,0.9l0.7-1.1c0.4,0.1,0.9,0.1,1.4,0l-0.2-0.7c-0.3,0.1-0.6,0.1-0.8,0.1l0.9-1.4c0.2-0.3,0.3-0.5,0.6-0.6
	C92.7,51.4,92.9,51.7,93,52z M89,46.3c-1,0.3-1.5,1.2-1.2,2c0.1,0.3,0.2,0.6,0.5,0.8L89,49c-0.3-0.2-0.5-0.4-0.5-0.7
	c-0.1-0.5,0.1-1,0.8-1.2s1.1,0.1,1.3,0.6c0.1,0.3,0.1,0.6-0.1,0.9l0.7-0.2c0.1-0.3,0.1-0.6,0-0.9C90.9,46.6,90.1,46,89,46.3z
	 M91.4,45.1c0.2-0.1,0.4-0.3,0.3-0.6c-0.1-0.2-0.3-0.4-0.6-0.3c-0.2,0.1-0.4,0.3-0.3,0.6C90.9,45,91.2,45.1,91.4,45.1z M90.5,45.2
	l-0.2-0.7l-3.2,0.9l0.2,0.7L90.5,45.2z M91.5,43.2l-0.2-0.7l-4.7,1.2l0.2,0.7L91.5,43.2z M88.1,40.2c0.3,0.1,0.5,0.3,0.6,0.6
	c0.1,0.6-0.2,1-0.8,1.2s-1.1-0.1-1.3-0.6c-0.1-0.3,0-0.6,0.2-0.8L88.1,40.2z M86.1,40.7c-0.1,0.2-0.2,0.6-0.1,0.9
	c0.2,0.9,1.1,1.3,2.1,1c0.9-0.2,1.5-1,1.3-1.9c-0.1-0.4-0.3-0.6-0.6-0.7l1.7-0.5l-0.2-0.7l-4.7,1.2l0.2,0.7L86.1,40.7z M88.6,38.3
	l-0.2-0.7l-2.1,0.6c-0.3,0-0.6-0.2-0.7-0.5c-0.1-0.4,0.1-0.7,0.5-0.8l1.9-0.5l-0.2-0.7l-2.1,0.6c-0.7,0.2-1.1,0.7-0.9,1.4
	c0.1,0.4,0.4,0.6,0.6,0.8l-0.3,0.1l0.2,0.7L88.6,38.3z M87.4,34.4c-0.4,0.1-0.8-0.1-0.9-0.6l-0.3-0.9l1.5-0.4l0.3,0.9
	C88.1,34,87.8,34.3,87.4,34.4z M85.8,34c0.2,0.9,0.9,1.4,1.8,1.1c0.9-0.2,1.2-1,1-1.9l-0.5-1.7l-4.4,1.2l0.2,0.7l1.6-0.4L85.8,34z"
	/>
<path fill="#FFFFFF" d="M97.4,141c0.3-0.2,0.5-0.6,0.6-1c0.2-0.7,0-1.3-0.6-1.5c-0.5-0.1-0.8,0.1-1.2,0.6l-0.2,0.4
	c-0.2,0.2-0.3,0.4-0.5,0.3c-0.2-0.1-0.3-0.3-0.2-0.6c0.1-0.4,0.4-0.6,0.7-0.8l-0.7-0.2c-0.3,0.2-0.4,0.5-0.5,0.9
	c-0.2,0.7,0.1,1.3,0.6,1.5c0.5,0.1,0.9-0.1,1.2-0.6l0.2-0.3c0.1-0.2,0.3-0.4,0.5-0.3c0.2,0.1,0.3,0.3,0.2,0.6
	c-0.1,0.4-0.4,0.7-0.8,0.9L97.4,141z M94.3,140.7c0,0-0.1,0.2-0.2,0.3c-0.1,0.3,0,0.6,0.2,0.8l-0.3-0.1l-0.2,0.7l3.2,0.9l0.2-0.7
	l-2.1-0.6c-0.3-0.2-0.4-0.5-0.3-0.8c0-0.2,0.1-0.3,0.2-0.4L94.3,140.7z M93.9,144.6c0.1-0.4,0.5-0.6,0.8-0.5l-0.4,1.4
	C93.9,145.3,93.8,144.9,93.9,144.6z M95.4,143.6l-0.3-0.1c-0.9-0.2-1.7,0-1.9,0.9c-0.2,0.9,0.3,1.6,1.3,1.9c1,0.3,1.8-0.2,2.1-1.1
	c0.1-0.4,0.1-0.8,0-1.1L96,144c0.1,0.4,0.1,0.6,0,1c-0.1,0.5-0.5,0.9-1.2,0.7L95.4,143.6z M91.8,146.2c-0.2-0.1-0.5,0.1-0.6,0.3
	c-0.1,0.2,0.1,0.5,0.3,0.6c0.2,0.1,0.5-0.1,0.6-0.3C92.2,146.6,92.1,146.3,91.8,146.2z M92.8,146.6l-0.2,0.7l3.2,0.9l0.2-0.7
	L92.8,146.6z M92.8,148.8l0.2-0.7l-0.6-0.2l-0.2,0.7l-0.9-0.2l-0.2,0.7l0.9,0.2l-0.2,0.6l0.6,0.2l0.2-0.6l2.6,0.7l0.2-0.7
	L92.8,148.8z M94.2,154.1l0.2-0.7l-2.1-0.6c-0.3-0.2-0.4-0.5-0.3-0.8c0.1-0.4,0.4-0.5,0.8-0.4l1.9,0.5l0.2-0.7l-2.1-0.6
	c-0.7-0.2-1.3,0.1-1.5,0.8c-0.1,0.4,0,0.7,0.1,1l-0.3-0.1l-0.2,0.7L94.2,154.1z M92.2,155.1c0.6,0.2,1,0.6,0.8,1.1s-0.7,0.7-1.3,0.5
	s-1-0.6-0.8-1.1S91.6,154.9,92.2,155.1z M92.4,154.4c-1-0.3-1.8,0.2-2.1,1.1c-0.2,0.9,0.3,1.7,1.3,2s1.8-0.2,2.1-1.1
	C93.9,155.4,93.4,154.6,92.4,154.4z M89.9,157.3c0,0-0.1,0.2-0.2,0.3c-0.1,0.3,0,0.6,0.2,0.8l-0.3-0.1l-0.2,0.7l3.2,0.9l0.2-0.7
	l-2.1-0.6c-0.3-0.2-0.4-0.5-0.3-0.8c0-0.2,0.1-0.3,0.2-0.4L89.9,157.3z M91.9,162.6l-1.8-0.5l0.5-1.9L90,160l-0.5,1.9l-1.3-0.3
	l0.6-2.1l-0.7-0.2l-0.8,2.8l4.4,1.2L91.9,162.6z M87.4,166.6l-0.2,0.7l2.1,1.2l-2.4,0l-0.2,0.7l3.4-0.1l0.2-0.7l-2.1-1.2l2.4,0
	l0.2-0.7l-2.9-1.8l-0.2,0.7l2.1,1.2L87.4,166.6z M86.8,170.9c0.1-0.4,0.5-0.6,0.8-0.5l-0.4,1.4C86.8,171.6,86.7,171.2,86.8,170.9z
	 M88.4,169.9l-0.3-0.1c-0.9-0.2-1.7,0-1.9,0.9c-0.2,0.9,0.3,1.6,1.3,1.9c1,0.3,1.8-0.2,2.1-1.1c0.1-0.4,0.1-0.8,0-1.1l-0.6-0.2
	c0.1,0.4,0.1,0.6,0,1c-0.1,0.5-0.5,0.9-1.2,0.7L88.4,169.9z M84.5,172.6l-0.2,0.7l3,0.8l-3.6,1.3l-0.2,0.7l4.4,1.2l0.2-0.7l-3.2-0.9
	l3.8-1.4l0.2-0.6L84.5,172.6z"/>
<path fill="#FFFFFF" d="M121.4,174.7l0.2,0.7l2.1-0.6c0.3,0,0.6,0.2,0.7,0.5c0.1,0.4-0.1,0.7-0.5,0.8l-1.9,0.5l0.2,0.7l2.1-0.6
	c0.7-0.2,1.1-0.7,0.9-1.4c-0.1-0.4-0.4-0.6-0.6-0.8l0.3-0.1l-0.2-0.7L121.4,174.7z M122.7,172.9c-0.6,0.2-1.1,0-1.3-0.5
	s0.2-0.9,0.8-1.1s1.1,0,1.3,0.5S123.3,172.8,122.7,172.9z M122.9,173.6c1-0.3,1.5-1.1,1.3-2c-0.2-0.9-1.1-1.3-2.1-1.1
	s-1.5,1.1-1.3,2C121,173.5,121.9,173.9,122.9,173.6z M124.4,169.4c0.2-0.1,0.4-0.3,0.3-0.6c-0.1-0.2-0.3-0.4-0.6-0.3
	c-0.2,0.1-0.4,0.3-0.3,0.6C123.9,169.3,124.2,169.4,124.4,169.4z M123.5,169.5l-0.2-0.7l-3.2,0.9l0.2,0.7L123.5,169.5z M122.3,167.6
	l0.2,0.7l0.6-0.2l-0.2-0.7l0.9-0.2l-0.2-0.7l-0.9,0.2l-0.2-0.6l-0.6,0.2l0.2,0.6l-2.6,0.7l0.2,0.7L122.3,167.6z M119.9,165.5
	c-0.2,0-0.4-0.3-0.5-0.6c-0.1-0.3,0-0.7,0.3-0.8c0.3-0.1,0.5,0.2,0.6,0.5c0.1,0.3,0,0.6-0.1,0.7L119.9,165.5z M120.8,165.2
	c0.1-0.2,0.1-0.5,0-0.8c-0.2-0.7-0.8-1.1-1.4-1c-0.7,0.2-0.9,0.8-0.7,1.5c0.1,0.4,0.3,0.6,0.4,0.7l-0.2,0l0.2,0.7l2.1-0.6
	c0.7-0.2,1-0.8,0.8-1.6c-0.1-0.4-0.3-0.8-0.5-0.9l-0.7,0.2c0.2,0.2,0.4,0.5,0.5,0.8c0.1,0.4,0,0.8-0.4,0.9L120.8,165.2z
	 M119.3,160.4c-1,0.3-1.5,1.2-1.2,2c0.1,0.3,0.2,0.6,0.5,0.8l0.7-0.2c-0.3-0.2-0.5-0.4-0.5-0.7c-0.1-0.5,0.1-1,0.8-1.2
	s1.1,0.1,1.3,0.6c0.1,0.3,0.1,0.6-0.1,0.9l0.7-0.2c0.1-0.3,0.1-0.6,0-0.9C121.2,160.7,120.3,160.1,119.3,160.4z M121.7,159.1
	c0.2-0.1,0.4-0.3,0.3-0.6c-0.1-0.2-0.3-0.4-0.6-0.3c-0.2,0.1-0.4,0.3-0.3,0.6C121.2,159,121.5,159.2,121.7,159.1z M120.7,159.3
	l-0.2-0.7l-3.2,0.9l0.2,0.7L120.7,159.3z M121.8,157.7c0-0.1,0-0.3,0-0.5c-0.2-0.6-0.7-0.9-1.3-0.8l-0.5,0.1l-0.1-0.6l-0.6,0.2
	l0.1,0.6l-2.6,0.7l0.2,0.7l2.6-0.7l0.2,0.7l0.6-0.2l-0.2-0.7l0.4-0.1c0.3-0.1,0.5,0,0.6,0.3c0,0.1,0,0.3,0,0.4L121.8,157.7z
	 M120.7,155.3c0.2-0.1,0.4-0.3,0.3-0.6c-0.1-0.2-0.3-0.4-0.6-0.3c-0.2,0.1-0.4,0.3-0.3,0.6C120.2,155.2,120.4,155.3,120.7,155.3z
	 M119.7,155.4l-0.2-0.7l-3.2,0.9l0.2,0.7L119.7,155.4z M118.4,152c0.2-0.2,0.3-0.6,0.2-1c-0.1-0.4-0.3-0.6-0.5-0.7l0.3-0.1l-0.2-0.7
	l-3.2,0.9l0.2,0.7l2.1-0.6c0.3,0,0.6,0.2,0.6,0.4c0.1,0.4-0.1,0.6-0.5,0.7l-2,0.5l0.2,0.7l2.1-0.6c0.3,0,0.6,0.2,0.6,0.4
	c0.1,0.4-0.1,0.6-0.5,0.7l-2,0.5l0.2,0.7l2.1-0.6c0.7-0.2,1.1-0.7,0.9-1.3C118.9,152.4,118.7,152.1,118.4,152z M115.4,148.6
	c-0.2,0-0.4-0.3-0.5-0.6c-0.1-0.3,0-0.7,0.3-0.8c0.3-0.1,0.5,0.2,0.6,0.5c0.1,0.3,0,0.6-0.1,0.7L115.4,148.6z M116.3,148.4
	c0.1-0.2,0.1-0.5,0-0.8c-0.2-0.7-0.8-1.1-1.4-1c-0.7,0.2-0.9,0.8-0.7,1.5c0.1,0.4,0.3,0.6,0.4,0.7l-0.2,0l0.2,0.7l2.1-0.6
	c0.7-0.2,1-0.8,0.8-1.6c-0.1-0.4-0.3-0.8-0.5-0.9l-0.7,0.2c0.2,0.2,0.4,0.5,0.5,0.8c0.1,0.4,0,0.8-0.4,0.9L116.3,148.4z M114,144.6
	c-0.2-0.9,0.3-1.6,1.2-1.8c0.9-0.3,1.8,0.2,2,1c0.1,0.5,0.1,0.9-0.2,1.4l0.8-0.2c0.2-0.4,0.2-0.8,0-1.3c-0.3-1.3-1.5-1.9-2.9-1.6
	c-1.3,0.4-2.1,1.4-1.7,2.7c0.1,0.6,0.5,1.1,1.1,1.4l1.8-0.5l-0.4-1.5l-0.6,0.2l0.2,0.8l-0.8,0.2C114.3,145.2,114.1,144.9,114,144.6z
	"/>
<path fill="#FFFFFF" d="M154.4,156.7l0.5,0.5l1.5-1.5c0.3-0.2,0.6-0.1,0.9,0.1c0.3,0.3,0.3,0.6,0,0.9l-1.4,1.4l0.5,0.5l1.5-1.5
	c0.5-0.5,0.6-1.2,0-1.7c-0.3-0.3-0.6-0.4-0.9-0.4l0.2-0.2l-0.5-0.5L154.4,156.7z M154,154.8c-0.2,0.1-0.6,0-0.8-0.2
	c-0.4-0.4-0.3-0.9,0.1-1.4s1-0.5,1.4-0.1c0.2,0.2,0.3,0.5,0.2,0.8L154,154.8z M153.4,155.4c-0.4,0.4-0.9,0.3-1.3,0
	c-0.3-0.3-0.5-0.6-0.5-1.1l-0.6,0.6c0.1,0.3,0.3,0.7,0.6,1c0.6,0.6,1.5,0.9,2.3,0.1l2.1-2.1l-0.5-0.5l-0.2,0.2
	c0-0.2-0.1-0.6-0.3-0.8c-0.7-0.7-1.6-0.5-2.3,0.1s-0.8,1.6-0.1,2.3C152.9,155.3,153.2,155.4,153.4,155.4L153.4,155.4z M154.2,150.4
	c0.2-0.2,0.2-0.5,0-0.6s-0.5-0.2-0.6,0s-0.2,0.5,0,0.6S154,150.6,154.2,150.4z M153.4,151.1l-0.5-0.5l-2.3,2.3l0.5,0.5L153.4,151.1z
	 M148.5,150.5c0,0.3,0.2,0.7,0.5,1c0.5,0.5,1.2,0.7,1.6,0.2c0.4-0.4,0.4-0.8,0.1-1.3l-0.2-0.4c-0.1-0.3-0.2-0.4,0-0.6
	c0.2-0.2,0.4-0.1,0.6,0.1c0.3,0.3,0.4,0.6,0.4,1l0.5-0.5c-0.1-0.3-0.2-0.6-0.5-0.9c-0.5-0.5-1.1-0.6-1.6-0.2
	c-0.4,0.4-0.3,0.8-0.1,1.3l0.2,0.3c0.1,0.2,0.2,0.4,0,0.6c-0.2,0.2-0.4,0.1-0.7-0.2c-0.3-0.3-0.4-0.7-0.4-1.1L148.5,150.5z
	 M148.9,147.3c0.3,0.3,0.3,0.7,0,1l-1-1C148.3,147,148.7,147.1,148.9,147.3z M149,149.2l0.2-0.2c0.7-0.7,0.8-1.5,0.2-2.1
	c-0.6-0.6-1.6-0.6-2.3,0.2c-0.7,0.7-0.7,1.7,0,2.4c0.3,0.3,0.6,0.5,0.9,0.5l0.5-0.5c-0.4-0.1-0.6-0.2-0.9-0.5
	c-0.4-0.4-0.5-0.9-0.1-1.4L149,149.2z M142.9,145.2l1.1,1.1c1,1,2.2,0.9,3.2,0s1-2.2,0-3.2l-1.1-1.1L142.9,145.2z M143.9,145.3
	l2.3-2.3l0.5,0.5c0.7,0.7,0.6,1.5-0.1,2.2c-0.7,0.7-1.5,0.8-2.2,0.1L143.9,145.3z M139.1,141.4l0.5,0.5l1.5-1.5
	c0.3-0.2,0.6-0.1,0.9,0.1c0.3,0.3,0.3,0.6,0,0.9l-1.4,1.4l0.5,0.5l1.5-1.5c0.5-0.5,0.6-1.2,0-1.7c-0.3-0.3-0.6-0.4-0.9-0.4l0.2-0.2
	l-0.5-0.5L139.1,141.4z M139.5,138c0.3,0.3,0.3,0.7,0,1l-1-1C139,137.7,139.3,137.8,139.5,138z M139.6,139.9l0.2-0.2
	c0.7-0.7,0.8-1.5,0.2-2.1c-0.6-0.6-1.6-0.6-2.3,0.2c-0.7,0.7-0.7,1.7,0,2.4c0.3,0.3,0.6,0.5,0.9,0.5l0.5-0.5
	c-0.4-0.1-0.6-0.2-0.9-0.5c-0.4-0.4-0.5-0.9-0.1-1.4L139.6,139.9z M136.1,135.2c0.3-0.1,0.6,0,0.8,0.2c0.4,0.4,0.3,1-0.1,1.4
	s-1,0.5-1.4,0.1c-0.2-0.2-0.3-0.5-0.2-0.8L136.1,135.2z M134.7,136.6c0,0.2,0.1,0.6,0.3,0.8c0.7,0.7,1.6,0.5,2.3-0.1
	s0.8-1.6,0.1-2.3c-0.3-0.3-0.6-0.4-0.8-0.3l0.2-0.2l-0.5-0.5l-3.2,3.2l0.5,0.5L134.7,136.6z M134.5,133.7c-0.7,0.7-1.5,0.8-2.1,0.2
	s-0.4-1.4,0.2-2.1s1.5-0.8,2.1-0.2S135.2,133,134.5,133.7z M135.1,134.2c1-1,1-2.3,0.2-3.2s-2.2-0.8-3.1,0.2c-1,1-1,2.3-0.2,3.1
	S134.1,135.2,135.1,134.2z"/>
<path fill="#FFFFFF" d="M174.8,127.1l2.9-3.9l-0.7-0.2l-1.4,2.1l-0.2-2.6l-0.8-0.2l0.4,3.6l-0.8,1L174.8,127.1z M173.3,122.6
	l0.7,0.2l0.2-0.6l-0.7-0.2l0.2-0.9L173,121l-0.2,0.9l-0.6-0.2l-0.2,0.6l0.6,0.2l-0.7,2.6l0.7,0.2L173.3,122.6z M171.8,120.6
	c0.1-0.2-0.1-0.5-0.3-0.6c-0.2-0.1-0.5,0.1-0.6,0.3c-0.1,0.2,0.1,0.5,0.3,0.6C171.5,120.9,171.8,120.8,171.8,120.6z M171.5,121.5
	l-0.7-0.2l-0.9,3.2l0.7,0.2L171.5,121.5z M170.3,119.6l-0.7-0.2l-1.2,4.7l0.7,0.2L170.3,119.6z M168.6,119.7
	c0.1-0.2-0.1-0.5-0.3-0.6c-0.2-0.1-0.5,0.1-0.6,0.3c-0.1,0.2,0.1,0.5,0.3,0.6C168.3,120.1,168.5,119.9,168.6,119.7z M168.3,120.6
	l-0.7-0.2l-0.9,3.2l0.7,0.2L168.3,120.6z M164.3,120.6c0.2-0.2,0.5-0.3,0.8-0.2c0.6,0.1,0.8,0.7,0.6,1.3c-0.2,0.6-0.6,0.9-1.2,0.8
	c-0.3-0.1-0.5-0.3-0.6-0.6L164.3,120.6z M163.8,122.6c0.1,0.2,0.4,0.5,0.7,0.6c0.9,0.2,1.7-0.3,1.9-1.3c0.2-0.9-0.1-1.8-1-2.1
	c-0.4-0.1-0.7,0-0.9,0.1l0.5-1.7l-0.7-0.2l-1.2,4.7l0.7,0.2L163.8,122.6z M161.7,121.4c-0.1,0.2-0.4,0.2-0.7,0.1
	c-0.3-0.1-0.6-0.3-0.5-0.6c0.1-0.3,0.5-0.4,0.8-0.3c0.3,0.1,0.5,0.3,0.6,0.5L161.7,121.4z M162,120.4c-0.1-0.1-0.4-0.3-0.7-0.4
	c-0.7-0.2-1.4,0.1-1.5,0.7c-0.2,0.7,0.3,1.2,0.9,1.4c0.4,0.1,0.7,0.1,0.8,0l0,0.2l0.7,0.2l0.6-2.1c0.2-0.7-0.2-1.3-1-1.5
	c-0.4-0.1-0.8-0.1-1.1,0l-0.2,0.7c0.3-0.1,0.6-0.1,1,0c0.4,0.1,0.7,0.4,0.6,0.8L162,120.4z M156.2,120.8l0.7,0.2l0.6-2.1
	c0.2-0.3,0.5-0.4,0.8-0.3c0.4,0.1,0.5,0.4,0.4,0.8l-0.5,1.9l0.7,0.2l0.6-2.1c0.2-0.7-0.1-1.3-0.8-1.5c-0.4-0.1-0.7,0-1,0.1l0.1-0.3
	l-0.7-0.2L156.2,120.8z M156.5,116.5c0.1-0.2-0.1-0.5-0.3-0.6c-0.2-0.1-0.5,0.1-0.6,0.3c-0.1,0.2,0.1,0.5,0.3,0.6
	C156.2,116.8,156.4,116.7,156.5,116.5z M156.2,117.4l-0.7-0.2l-0.9,3.2l0.7,0.2L156.2,117.4z M153.3,119.1c-0.1,0.2-0.4,0.2-0.7,0.1
	c-0.3-0.1-0.6-0.3-0.5-0.6c0.1-0.3,0.5-0.4,0.8-0.3c0.3,0.1,0.5,0.3,0.6,0.5L153.3,119.1z M153.5,118.2c-0.1-0.1-0.4-0.3-0.7-0.4
	c-0.7-0.2-1.4,0.1-1.5,0.7c-0.2,0.7,0.3,1.2,0.9,1.4c0.4,0.1,0.7,0.1,0.8,0l0,0.2l0.7,0.2l0.6-2.1c0.2-0.7-0.2-1.3-1-1.5
	c-0.4-0.1-0.8-0.1-1.1,0l-0.2,0.7c0.3-0.1,0.6-0.1,1,0c0.4,0.1,0.7,0.4,0.6,0.8L153.5,118.2z M150.7,116.6l0.7,0.2l0.2-0.6l-0.7-0.2
	l0.2-0.9l-0.7-0.2l-0.2,0.9l-0.6-0.2l-0.2,0.6l0.6,0.2l-0.7,2.6l0.7,0.2L150.7,116.6z M146,117.8c0.2,0.3,0.6,0.5,1,0.6
	c0.7,0.2,1.3,0,1.5-0.6c0.1-0.5-0.1-0.8-0.6-1.2l-0.4-0.2c-0.2-0.2-0.4-0.3-0.3-0.5c0.1-0.2,0.3-0.3,0.6-0.2
	c0.4,0.1,0.6,0.4,0.8,0.7l0.2-0.7c-0.2-0.3-0.5-0.4-0.9-0.5c-0.7-0.2-1.3,0.1-1.5,0.6c-0.1,0.5,0.1,0.9,0.6,1.2l0.3,0.2
	c0.2,0.1,0.4,0.3,0.3,0.5c-0.1,0.2-0.3,0.3-0.6,0.2c-0.4-0.1-0.7-0.4-0.9-0.8L146,117.8z M146.1,114.7l-0.7-0.2l-0.6,2.1
	c-0.2,0.3-0.5,0.4-0.8,0.3c-0.4-0.1-0.5-0.4-0.4-0.8l0.5-1.9l-0.7-0.2l-0.6,2.1c-0.2,0.7,0.1,1.3,0.8,1.5c0.4,0.1,0.7,0,1-0.1
	l-0.1,0.3l0.7,0.2L146.1,114.7z M139,115.9c0.3,0.3,0.7,0.6,1.3,0.8c0.9,0.2,1.7,0,1.9-0.8c0.2-0.6,0-1.1-0.7-1.5l-0.6-0.4
	c-0.3-0.2-0.5-0.4-0.4-0.7c0.1-0.4,0.5-0.4,0.9-0.3c0.5,0.1,0.9,0.4,1.2,0.8l0.2-0.8c-0.3-0.3-0.7-0.6-1.2-0.7
	c-0.8-0.2-1.6,0-1.8,0.8c-0.2,0.7,0.2,1.2,0.7,1.5l0.6,0.4c0.4,0.3,0.5,0.5,0.4,0.8c-0.1,0.4-0.5,0.5-1,0.3
	c-0.5-0.1-0.9-0.5-1.3-0.9L139,115.9z"/>
<path fill="#FFFFFF" d="M177.3,88.9l0.5-4.8l-0.7,0.2l-0.2,2.6l-1.5-2.1l-0.8,0.2l2.1,2.9l-0.1,1.3L177.3,88.9z M173.7,85.7l0.7-0.2
	l-0.2-0.6l-0.7,0.2l-0.2-0.9l-0.7,0.2l0.2,0.9l-0.6,0.2l0.2,0.6l0.6-0.2l0.7,2.6l0.7-0.2L173.7,85.7z M171.4,84.7
	c-0.1-0.2-0.3-0.4-0.6-0.3c-0.2,0.1-0.4,0.3-0.3,0.6c0.1,0.2,0.3,0.4,0.6,0.3C171.3,85.2,171.5,84.9,171.4,84.7z M171.6,85.7
	l-0.7,0.2l0.9,3.2l0.7-0.2L171.6,85.7z M168.6,89.6c0.3,0.1,0.8,0.2,1.2,0c0.7-0.2,1.2-0.7,1-1.3c-0.1-0.5-0.5-0.7-1.1-0.7l-0.4,0
	c-0.3,0-0.5,0-0.5-0.3c-0.1-0.2,0.1-0.4,0.4-0.5c0.4-0.1,0.7,0,1.1,0.2l-0.2-0.7c-0.3-0.1-0.7-0.1-1,0c-0.7,0.2-1.1,0.7-0.9,1.3
	c0.1,0.5,0.5,0.7,1.1,0.7l0.4,0c0.3,0,0.5,0.1,0.5,0.3c0.1,0.2-0.2,0.4-0.5,0.5c-0.4,0.1-0.8,0-1.2-0.2L168.6,89.6z M167.4,86.8
	c-0.1,0-0.2,0-0.4,0c-0.3,0.1-0.5,0.3-0.6,0.6l-0.1-0.3l-0.7,0.2l0.9,3.2l0.7-0.2l-0.6-2.1c0-0.4,0.2-0.6,0.5-0.7
	c0.2,0,0.3-0.1,0.5,0L167.4,86.8z M163.7,88.3c0.4-0.1,0.7,0.1,0.8,0.5l-1.4,0.4C163.1,88.7,163.4,88.4,163.7,88.3z M165.4,89.2
	l-0.1-0.3c-0.2-0.9-0.9-1.4-1.8-1.2c-0.9,0.2-1.3,1.1-1,2.1c0.3,1,1.1,1.5,2,1.2c0.4-0.1,0.7-0.3,0.9-0.6l-0.2-0.6
	c-0.2,0.3-0.5,0.4-0.8,0.5c-0.5,0.1-1,0-1.2-0.6L165.4,89.2z M161.5,91.8l0.4-3.5l-0.7,0.2l-0.2,2.5l-1.4-2.1l-0.8,0.2l2.1,2.9
	L161.5,91.8z M157.9,88.3c-0.1-0.2-0.3-0.4-0.6-0.3c-0.2,0.1-0.4,0.3-0.3,0.6c0.1,0.2,0.3,0.4,0.6,0.3
	C157.8,88.8,158,88.5,157.9,88.3z M158.1,89.3l-0.7,0.2l0.9,3.2l0.7-0.2L158.1,89.3z M153.9,93.8l1.5-0.4c1.3-0.3,1.9-1.4,1.5-2.8
	c-0.4-1.3-1.4-2-2.7-1.6l-1.5,0.4L153.9,93.8z M154.5,92.9l-0.8-3.1l0.7-0.2c0.9-0.2,1.6,0.2,1.8,1.2c0.3,0.9-0.1,1.7-1,1.9
	L154.5,92.9z M150.2,89.8l-0.7,0.2l1.2,4.7l0.7-0.2L150.2,89.8z M148.9,94.2c0,0.2-0.3,0.4-0.6,0.5c-0.3,0.1-0.7,0-0.8-0.3
	c-0.1-0.3,0.2-0.5,0.5-0.6c0.3-0.1,0.6,0,0.7,0.1L148.9,94.2z M148.7,93.3c-0.2-0.1-0.5-0.1-0.8,0c-0.7,0.2-1.1,0.8-1,1.4
	c0.2,0.7,0.8,0.9,1.5,0.7c0.4-0.1,0.6-0.3,0.7-0.4l0,0.2l0.7-0.2l-0.6-2.1c-0.2-0.7-0.8-1-1.6-0.8c-0.4,0.1-0.8,0.3-0.9,0.5l0.2,0.7
	c0.2-0.2,0.5-0.4,0.8-0.5c0.4-0.1,0.8,0,0.9,0.4L148.7,93.3z M146,92.5c-0.1,0-0.2,0-0.4,0c-0.3,0.1-0.5,0.3-0.6,0.6l-0.1-0.3
	l-0.7,0.2l0.9,3.2l0.7-0.2l-0.6-2.1c0-0.4,0.2-0.6,0.5-0.7c0.2,0,0.3-0.1,0.5,0L146,92.5z M143.3,93.2l-0.7,0.2l0.6,2.1
	c0,0.3-0.2,0.6-0.5,0.7c-0.4,0.1-0.7-0.1-0.8-0.5l-0.5-1.9l-0.7,0.2l0.6,2.1c0.2,0.7,0.7,1.1,1.4,0.9c0.4-0.1,0.6-0.4,0.8-0.6
	l0.1,0.3l0.7-0.2L143.3,93.2z M139.5,94.9l0.7-0.2l-0.2-0.6l-0.7,0.2l-0.2-0.9l-0.7,0.2l0.2,0.9l-0.6,0.2l0.2,0.6l0.6-0.2l0.7,2.6
	l0.7-0.2L139.5,94.9z M137,93.4l-0.7,0.2l1.2,4.7l0.7-0.2L137,93.4z M135.8,95.3l-0.7,0.2l0.6,2.1c0,0.3-0.2,0.6-0.5,0.7
	c-0.4,0.1-0.7-0.1-0.8-0.5l-0.5-1.9l-0.7,0.2l0.6,2.1c0.2,0.7,0.7,1.1,1.4,0.9c0.4-0.1,0.6-0.4,0.8-0.6l0.1,0.3l0.7-0.2L135.8,95.3z
	 M129.3,98c0.4,1.4,1.5,2,2.7,1.7c0.5-0.1,0.8-0.4,1.1-0.7l-0.2-0.8c-0.3,0.4-0.6,0.7-1,0.8c-0.8,0.2-1.6-0.3-1.8-1.2
	c-0.3-0.9,0.1-1.7,1-2c0.5-0.1,0.9-0.1,1.3,0.2l-0.2-0.8c-0.3-0.2-0.8-0.2-1.3-0.1C129.6,95.5,129,96.7,129.3,98z"/>
<path fill="#FFFFFF" d="M158.5,53c0.1,0.2,0,0.6-0.2,0.8c-0.4,0.4-0.9,0.3-1.4-0.1s-0.5-1-0.1-1.4c0.2-0.2,0.5-0.3,0.8-0.2L158.5,53
	z M159.1,53.6c0.4,0.4,0.3,0.9,0,1.3c-0.3,0.3-0.6,0.5-1.1,0.5l0.6,0.6c0.3-0.1,0.7-0.3,1-0.6c0.6-0.6,0.9-1.5,0.1-2.3l-2.1-2.1
	l-0.5,0.5l0.2,0.2c-0.2,0-0.6,0.1-0.8,0.3c-0.7,0.7-0.5,1.6,0.1,2.3s1.6,0.8,2.3,0.1C158.9,54.1,159,53.8,159.1,53.6L159.1,53.6z
	 M155.1,57.8l0.5-0.5l-1.5-1.5c-0.2-0.3-0.1-0.6,0.1-0.9c0.3-0.3,0.6-0.3,0.9,0l1.4,1.4l0.5-0.5l-1.5-1.5c-0.5-0.5-1.2-0.6-1.7,0
	c-0.3,0.3-0.4,0.6-0.4,0.9l-0.2-0.2l-0.5,0.5L155.1,57.8z M151.5,55.4c-0.2-0.2-0.5-0.2-0.6,0s-0.2,0.5,0,0.6s0.5,0.2,0.6,0
	S151.7,55.6,151.5,55.4z M152.2,56.2l-0.5,0.5L154,59l0.5-0.5L152.2,56.2z M151.3,59.1l0-2.1l-0.7,0.7l0,1.8l-2-2l-0.5,0.5l3.4,3.4
	l0.5-0.5l-1.1-1.1L153,60l0.6-0.6L151.3,59.1z M148.1,62.6c0.8,0.8,1.7,0.7,2.4,0.1c0.2-0.2,0.4-0.5,0.4-0.8l-0.5-0.5
	c0,0.3-0.1,0.6-0.4,0.8c-0.4,0.4-1,0.4-1.4-0.1s-0.5-1-0.1-1.4c0.2-0.2,0.5-0.4,0.8-0.4l-0.5-0.5c-0.3,0-0.6,0.2-0.8,0.4
	C147.4,60.8,147.3,61.8,148.1,62.6z M147.7,64.1c0.1,0.2,0,0.5-0.2,0.7c-0.2,0.2-0.6,0.4-0.8,0.1c-0.2-0.2-0.1-0.6,0.2-0.8
	c0.2-0.2,0.5-0.3,0.7-0.2L147.7,64.1z M147,63.4c-0.2,0-0.5,0.2-0.7,0.4c-0.5,0.5-0.6,1.2-0.2,1.7c0.5,0.5,1.2,0.4,1.6-0.1
	c0.3-0.3,0.4-0.6,0.4-0.7l0.1,0.1l0.5-0.5l-1.5-1.5c-0.5-0.5-1.2-0.5-1.8,0.1c-0.3,0.3-0.5,0.7-0.5,0.9l0.5,0.5
	c0.1-0.3,0.2-0.6,0.4-0.9c0.3-0.3,0.7-0.4,1-0.1L147,63.4z M142.5,64l1.3,1.3l-1.6,1.6l-1.3-1.3l-0.5,0.5l3.2,3.2l0.5-0.5l-1.4-1.4
	l1.6-1.6l1.4,1.4l0.5-0.5l-3.2-3.2L142.5,64z"/>
<path fill="#FFFFFF" d="M124.1,32.3l0.2-0.7l-0.6-0.2l-0.2,0.7l-0.9-0.2l-0.2,0.7l0.9,0.2l-0.2,0.6l0.6,0.2l0.2-0.6l2.6,0.7l0.2-0.7
	L124.1,32.3z M121.6,33.3c-0.1,0.1-0.2,0.2-0.2,0.4c-0.2,0.6,0.1,1.1,0.8,1.3l0.5,0.1l-0.1,0.6l0.6,0.2l0.1-0.6l2.6,0.7l0.2-0.7
	l-2.6-0.7l0.2-0.7l-0.6-0.2l-0.2,0.7l-0.4-0.1c-0.3-0.1-0.4-0.3-0.4-0.6c0-0.1,0.1-0.2,0.2-0.3L121.6,33.3z M124.6,37.6
	c0.2,0.1,0.2,0.4,0.1,0.7c-0.1,0.3-0.3,0.6-0.6,0.5c-0.3-0.1-0.4-0.5-0.3-0.8c0.1-0.3,0.3-0.5,0.5-0.6L124.6,37.6z M123.6,37.4
	c-0.1,0.1-0.3,0.4-0.4,0.7c-0.2,0.7,0.1,1.4,0.7,1.5c0.7,0.2,1.2-0.3,1.4-0.9c0.1-0.4,0.1-0.7,0-0.8l0.2,0l0.2-0.7l-2.1-0.6
	c-0.7-0.2-1.3,0.2-1.5,1c-0.1,0.4-0.1,0.8,0,1.1l0.7,0.2c-0.1-0.3-0.1-0.6,0-1c0.1-0.4,0.4-0.7,0.8-0.6L123.6,37.4z M121.6,39.3
	c0,0-0.1,0.2-0.2,0.3c-0.1,0.3,0,0.6,0.2,0.8l-0.3-0.1l-0.2,0.7l3.2,0.9l0.2-0.7l-2.1-0.6c-0.3-0.2-0.4-0.5-0.3-0.8
	c0-0.2,0.1-0.3,0.2-0.4L121.6,39.3z M121,45.5c1.4,0.4,2.5-0.3,2.8-1.5c0.1-0.5,0.1-0.9-0.1-1.3l-0.8-0.2c0.2,0.4,0.3,0.8,0.2,1.3
	c-0.2,0.8-1,1.2-2,1c-0.9-0.3-1.5-1-1.2-1.8c0.1-0.5,0.4-0.8,0.8-1l-0.8-0.2c-0.3,0.2-0.6,0.6-0.7,1.1C119,44,119.7,45.1,121,45.5z
	 M117.9,47.1l-0.2,0.7l4.7,1.2l0.2-0.7L117.9,47.1z M121.1,50.4c0.2,0.1,0.2,0.4,0.1,0.7c-0.1,0.3-0.3,0.6-0.6,0.5
	c-0.3-0.1-0.4-0.5-0.3-0.8c0.1-0.3,0.3-0.5,0.5-0.6L121.1,50.4z M120.2,50.1c-0.1,0.1-0.3,0.4-0.4,0.7c-0.2,0.7,0.1,1.4,0.7,1.5
	c0.7,0.2,1.2-0.3,1.4-0.9c0.1-0.4,0.1-0.7,0-0.8l0.2,0l0.2-0.7l-2.1-0.6c-0.7-0.2-1.3,0.2-1.5,1c-0.1,0.4-0.1,0.8,0,1.1l0.7,0.2
	c-0.1-0.3-0.1-0.6,0-1c0.1-0.4,0.4-0.7,0.8-0.6L120.2,50.1z M118.6,52.9l0.2-0.7l-0.6-0.2l-0.2,0.7l-0.9-0.2l-0.2,0.7l0.9,0.2
	l-0.2,0.6l0.6,0.2l0.2-0.6l2.6,0.7l0.2-0.7L118.6,52.9z M116.5,54.4c-0.2-0.1-0.5,0.1-0.6,0.3c-0.1,0.2,0.1,0.5,0.3,0.6
	c0.2,0.1,0.5-0.1,0.6-0.3C116.9,54.7,116.8,54.4,116.5,54.4z M117.5,54.7l-0.2,0.7l3.2,0.9l0.2-0.7L117.5,54.7z M119,57.6
	c0.2,0.2,0.3,0.5,0.2,0.8c-0.1,0.6-0.7,0.8-1.2,0.6c-0.6-0.2-0.9-0.6-0.8-1.1c0.1-0.3,0.3-0.5,0.6-0.6L119,57.6z M119.8,57.8
	c0.6,0.2,0.8,0.6,0.6,1.2c-0.1,0.4-0.3,0.7-0.7,1l0.8,0.2c0.2-0.2,0.4-0.6,0.6-1c0.2-0.8,0-1.7-1.1-2l-2.9-0.8l-0.2,0.7l0.3,0.1
	c-0.2,0.1-0.4,0.4-0.5,0.7c-0.3,0.9,0.4,1.7,1.2,1.9c0.9,0.2,1.8-0.1,2-1c0.1-0.4,0-0.7-0.1-0.9L119.8,57.8z M115.1,59.6
	c-0.2-0.1-0.5,0.1-0.6,0.3c-0.1,0.2,0.1,0.5,0.3,0.6c0.2,0.1,0.5-0.1,0.6-0.3C115.5,60,115.4,59.7,115.1,59.6z M116.1,60l-0.2,0.7
	l3.2,0.9l0.2-0.7L116.1,60z M117.9,65.9l0.4-1.5c0.3-1.3-0.3-2.4-1.6-2.7c-1.3-0.4-2.4,0.2-2.8,1.5l-0.4,1.5L117.9,65.9z
	 M117.4,64.9l-3.1-0.8l0.2-0.7c0.2-0.9,1-1.3,1.9-1c0.9,0.3,1.4,0.9,1.2,1.8L117.4,64.9z"/>
</svg>
