<?xml version="1.0" encoding="utf-8"?>
<!-- Generator: Adobe Illustrator 18.1.1, SVG Export Plug-In . SVG Version: 6.00 Build 0)  -->
<svg version="1.1" id="Layer_1" xmlns="http://www.w3.org/2000/svg" xmlns:xlink="http://www.w3.org/1999/xlink" x="0px" y="0px"
	 viewBox="0 0 100 135.5" style="enable-background:new 0 0 100 135.5;" xml:space="preserve">
<g>
	<g>
		<defs>
			<rect id="SVGID_1_" x="-1.6" y="-11.3" width="104.7" height="161.5"/>
		</defs>
		<clipPath id="SVGID_2_">
			<use xlink:href="#SVGID_1_"  style="overflow:visible;"/>
		</clipPath>
		
			<rect x="21.4" y="1.2" transform="matrix(-0.6157 -0.788 0.788 -0.6157 28.3913 73.6502)" style="clip-path:url(#SVGID_2_);" width="21.4" height="57.4"/>
		
			<rect x="33.1" y="2.9" transform="matrix(-0.6852 -0.7284 0.7284 -0.6852 39.6693 110.7892)" style="clip-path:url(#SVGID_2_);" width="21.4" height="87.8"/>
		
			<rect x="56.6" y="70.3" transform="matrix(-0.7071 -0.7071 0.7071 -0.7071 42.4561 222.3147)" style="clip-path:url(#SVGID_2_);" width="21.4" height="64.1"/>
		
			<rect x="44" y="44" transform="matrix(-0.5678 -0.8231 0.8231 -0.5678 14.6161 181.0732)" style="clip-path:url(#SVGID_2_);" width="21.6" height="85.5"/>
		
			<rect x="38.6" y="18.3" transform="matrix(-0.6088 -0.7934 0.7934 -0.6088 27.3724 144.6327)" style="clip-path:url(#SVGID_2_);" width="21.4" height="94.5"/>
		<path style="clip-path:url(#SVGID_2_);fill:#FFFFFF;" d="M57.2,26.7h3.5v-2.3h-3.5V26.7z M49.6,20.9v9h6.7v-2.4h-4v-0.9H56v-2.3
			h-3.6v-0.8h4v-2.4H49.6z M43.5,23.2h1.2c0.7,0,1,0.4,1,0.9c0,0.5-0.3,0.9-1,0.9h-1.2V23.2z M44.2,27.3l1.5,2.6h3.1l-1.9-3
			c0.9-0.5,1.5-1.4,1.5-2.7c0-2.1-1.4-3.3-3.4-3.3h-4.4v9h2.8v-2.6H44.2z"/>
		<path style="clip-path:url(#SVGID_2_);fill:#FFFFFF;" d="M83.9,41.5c-0.2,0.4-0.7,0.6-1.3,0.6c-1.1,0-1.7-0.8-1.7-2.2
			c0-1.2,0.6-2.2,1.7-2.2c0.6,0,1,0.3,1.2,0.8h2.9c-0.3-1.9-1.7-3.3-4.1-3.3c-2.7,0-4.6,1.9-4.6,4.6c0,2.7,1.9,4.6,4.6,4.6
			c2.5,0,4.1-1.5,4.1-4v-1h-3.9v2H83.9z M77.1,35.4h-2.7v4.2l-2.9-4.2h-2.6v9h2.7v-4.5l3.3,4.5h2.3V35.4z M67.5,35.4h-2.8v9h2.8
			V35.4z M55.6,37.8h2.6v6.5H61v-6.5h2.6v-2.4h-8.1V37.8z M54.6,35.4h-2.7v4.2l-2.9-4.2h-2.6v9H49v-4.5l3.3,4.5h2.3V35.4z
			 M38.4,35.4v9h6.7v-2.4h-4V41h3.6v-2.3h-3.6v-0.8h4v-2.4H38.4z M34.3,44.3l3.3-9h-2.9L33,40.5l-1.7-5.1h-3l3.3,9H34.3z M27.4,35.4
			h-2.7v4.2l-2.9-4.2h-2.6v9h2.7v-4.5l3.3,4.5h2.3V35.4z M17.9,35.4H15v9h2.8V35.4z"/>
		<path style="clip-path:url(#SVGID_2_);fill:#FFFFFF;" d="M56.7,49.9v9h6.7v-2.4h-4v-0.9h3.6v-2.3h-3.6v-0.8h4v-2.4H56.7z
			 M52.6,49.9v3.2h-2.8v-3.2h-2.8v9h2.8v-3.3h2.8v3.3h2.8v-9H52.6z M37.9,52.3h2.6v6.5h2.8v-6.5H46v-2.4h-8.1V52.3z"/>
		<path style="clip-path:url(#SVGID_2_);fill:#FFFFFF;" d="M12,67.7l0.7,2.1h-1.5L12,67.7z M10.6,64.4l-3.4,9H10l0.5-1.3h3.1
			l0.5,1.3h2.9l-3.4-9H10.6z"/>
		<path style="clip-path:url(#SVGID_2_);fill:#FFFFFF;" d="M20.4,66.8h1.2c0.7,0,1,0.4,1,0.9c0,0.5-0.3,0.9-1,0.9h-1.2V66.8z
			 M21.1,70.8l1.5,2.6h3.1l-1.9-3c0.9-0.5,1.5-1.4,1.5-2.7c0-2.1-1.4-3.3-3.4-3.3h-4.4v9h2.8v-2.6H21.1z"/>
		<path style="clip-path:url(#SVGID_2_);fill:#FFFFFF;" d="M85.1,73.4h6.7v-2.4h-3.8v-6.5h-2.8V73.4z M81.3,68.9
			c0,1.3-0.7,2.2-1.7,2.2c-1,0-1.7-0.8-1.7-2.2c0-1.3,0.7-2.2,1.7-2.2C80.6,66.7,81.3,67.5,81.3,68.9z M84.1,68.9
			c0-2.7-1.8-4.6-4.5-4.6c-2.7,0-4.5,1.9-4.5,4.6c0,2.7,1.8,4.6,4.5,4.6C82.3,73.5,84.1,71.6,84.1,68.9z M71.5,68.9
			c0,1.3-0.7,2.2-1.7,2.2s-1.7-0.8-1.7-2.2c0-1.3,0.7-2.2,1.7-2.2S71.5,67.5,71.5,68.9z M74.3,68.9c0-2.7-1.8-4.6-4.5-4.6
			s-4.5,1.9-4.5,4.6c0,2.7,1.8,4.6,4.5,4.6S74.3,71.6,74.3,68.9z M61.5,64.4v3.2h-2.8v-3.2h-2.8v9h2.8V70h2.8v3.3h2.8v-9H61.5z
			 M46.4,68.9c0,2.7,1.8,4.6,4.4,4.6c2.4,0,3.7-1.4,4-3.3H52c-0.2,0.5-0.6,0.8-1.2,0.8c-1,0-1.6-0.9-1.6-2.2c0-1.2,0.6-2.2,1.6-2.2
			c0.6,0,1,0.3,1.2,0.8h2.8c-0.3-1.8-1.6-3.3-4-3.3C48.2,64.3,46.4,66.2,46.4,68.9z M37.9,70.6c0.3,1.8,1.8,2.9,4.1,2.9
			c2,0,3.7-1.1,3.7-3c0-1.4-0.8-2.3-2.4-2.6l-1.9-0.4c-0.3-0.1-0.5-0.2-0.5-0.5c0-0.3,0.3-0.5,0.8-0.5c0.6,0,0.9,0.3,1.1,0.7h2.8
			c-0.2-1.6-1.5-2.9-3.8-2.9c-2.1,0-3.7,1.2-3.7,3c0,1.6,1,2.3,2.4,2.5l1.8,0.4c0.3,0.1,0.6,0.2,0.6,0.5c0,0.4-0.4,0.6-0.9,0.6
			c-0.6,0-1-0.2-1.1-0.7H37.9z M26.1,66.8h2.6v6.5h2.8v-6.5h2.6v-2.4h-8.1V66.8z"/>
		<path style="clip-path:url(#SVGID_2_);fill:#FFFFFF;" d="M51.6,78.9h-2l-2.8,1.3v2.6l2.1-1v6h2.7V78.9z M43.2,81.9
			c0,0.4-0.2,0.6-0.6,1l-3.3,3.1v1.8H46v-2.4h-2.8l1.2-1c0.9-0.8,1.6-1.5,1.6-2.7c0-1.7-1.4-2.9-3.4-2.9c-2,0-3.3,1.4-3.5,3.1H42
			c0-0.3,0.2-0.5,0.6-0.5C42.9,81.3,43.2,81.6,43.2,81.9z"/>
		<path style="clip-path:url(#SVGID_2_);fill:#FFFFFF;" d="M52.7,81.4c0.2,1.1,1.1,1.7,2.4,1.7c1.2,0,2.1-0.6,2.1-1.7
			c0-0.8-0.5-1.3-1.4-1.5l-1.1-0.3c-0.2,0-0.3-0.1-0.3-0.3c0-0.2,0.2-0.3,0.5-0.3c0.3,0,0.5,0.2,0.6,0.4h1.6
			c-0.1-0.9-0.9-1.7-2.2-1.7c-1.2,0-2.1,0.7-2.1,1.8c0,0.9,0.6,1.3,1.4,1.5l1.1,0.2c0.2,0,0.3,0.1,0.3,0.3c0,0.2-0.2,0.3-0.5,0.3
			c-0.3,0-0.6-0.1-0.6-0.4H52.7z"/>
		<polygon style="clip-path:url(#SVGID_2_);fill:#FFFFFF;" points="57.6,79.2 59.1,79.2 59.1,83 60.8,83 60.8,79.2 62.3,79.2 
			62.3,77.8 57.6,77.8 		"/>
		<path style="clip-path:url(#SVGID_2_);fill:#FFFFFF;" d="M19.8,97.9c0,2.7,1.8,4.6,4.4,4.6c2.4,0,3.7-1.4,4-3.3h-2.8
			c-0.2,0.5-0.6,0.8-1.2,0.8c-1,0-1.6-0.9-1.6-2.2c0-1.2,0.6-2.2,1.6-2.2c0.6,0,1,0.3,1.2,0.8h2.8c-0.3-1.8-1.6-3.3-4-3.3
			C21.6,93.3,19.8,95.2,19.8,97.9z"/>
		<path style="clip-path:url(#SVGID_2_);fill:#FFFFFF;" d="M59.5,102.5c2.5,0,4.1-1.4,4.1-3.8v-5.2h-2.8v5c0,1-0.5,1.6-1.3,1.6
			c-0.8,0-1.3-0.6-1.3-1.6v-5h-2.8v5.2C55.4,101.1,57,102.5,59.5,102.5z M46.4,95.8H49v6.5h2.8v-6.5h2.6v-2.4h-8.1V95.8z M45.4,93.4
			h-2.7v4.2l-2.9-4.2h-2.6v9h2.7v-4.5l3.3,4.5h2.3V93.4z M29.2,93.4v9h6.7V100h-4V99h3.6v-2.3H32v-0.8h4v-2.4H29.2z"/>
		<path style="clip-path:url(#SVGID_2_);fill:#FFFFFF;" d="M67.5,95.8h1.2c0.7,0,1,0.4,1,0.9c0,0.5-0.3,0.9-1,0.9h-1.2V95.8z
			 M68.2,99.8l1.5,2.6h3.1l-1.9-3c0.9-0.5,1.5-1.4,1.5-2.7c0-2.1-1.4-3.3-3.4-3.3h-4.4v9h2.8v-2.6H68.2z"/>
		<polygon style="clip-path:url(#SVGID_2_);fill:#FFFFFF;" points="77.3,96.6 75.7,93.4 72.7,93.4 75.8,99.4 75.8,102.4 78.7,102.4 
			78.7,99.4 81.9,93.4 78.9,93.4 		"/>
	</g>
</g>
</svg>
