<?xml version="1.0" encoding="utf-8"?>
<!-- Generator: Adobe Illustrator 18.1.1, SVG Export Plug-In . SVG Version: 6.00 Build 0)  -->
<svg version="1.1" id="Layer_1" xmlns="http://www.w3.org/2000/svg" xmlns:xlink="http://www.w3.org/1999/xlink" x="0px" y="0px"
	 viewBox="0 0 493.6 671.1" enable-background="new 0 0 493.6 671.1" xml:space="preserve">
<rect x="96.4" y="-13.5" transform="matrix(-0.6157 -0.788 0.788 -0.6157 138.7126 339.8165)" width="111.7" height="299.1"/>
<rect x="156.9" y="-4.6" transform="matrix(-0.6852 -0.7284 0.7284 -0.6852 195.2531 532.9628)" width="111.7" height="457.7"/>
<rect x="279.4" y="346.7" transform="matrix(-0.7071 -0.7071 0.7071 -0.7071 209.0221 1114.2321)" width="111.7" height="334.3"/>
<rect x="214.2" y="209.4" transform="matrix(-0.5678 -0.8231 0.8231 -0.5678 68.3352 900.212)" width="112.6" height="445.5"/>
<rect x="186" y="75.7" transform="matrix(-0.6088 -0.7934 0.7934 -0.6088 133.6131 709.8984)" width="111.7" height="492.5"/>
<path fill="#FFFFFF" d="M283,119.5h18.3v-11.8H283V119.5z M242.9,89.1v46.7H278v-12.6h-20.6v-4.9h18.9V106h-18.9v-4.4H278V89.1
	H242.9z M211.4,101.3h6.2c3.8,0,5.2,1.9,5.2,4.8c0,2.8-1.4,4.7-5.2,4.7h-6.2V101.3z M214.9,122.4l7.8,13.4h16.2l-9.7-15.6
	c4.9-2.6,8-7.4,8-14.1c0-10.8-7.3-17-17.6-17h-22.7v46.7h14.5v-13.4H214.9z"/>
<path fill="#FFFFFF" d="M421.9,196.4c-1.2,1.9-3.5,2.9-6.8,2.9c-5.5,0-9-4.3-9-11.3c0-6.5,3-11.3,9-11.3c3.3,0,5.5,1.5,6.4,4.2h15.1
	c-1.7-9.7-8.8-17-21.5-17c-14.1,0-23.8,10-23.8,24.1c0,14.1,9.7,24.1,23.8,24.1c13,0,21.6-8.1,21.6-21V186h-20.3v10.4H421.9z
	 M386.3,164.7h-14.2v21.7l-15.4-21.7h-13.8v46.7h14.2V188l17,23.3h12.1V164.7z M336.4,164.7h-14.7v46.7h14.7V164.7z M274.3,177.3
	h13.8v34.1h14.7v-34.1h13.8v-12.5h-42.3V177.3z M269.2,164.7H255v21.7l-15.4-21.7h-13.8v46.7h14.2V188l17,23.3h12.1V164.7z
	 M184.7,164.7v46.7h35.1v-12.6h-20.6v-4.9h18.9v-12.2h-18.9v-4.4h20.6v-12.5H184.7z M163.4,211.4l17.3-46.7h-15.2l-9,26.5l-9-26.5
	h-15.8l17.3,46.7H163.4z M127.6,164.7h-14.2v21.7L98,164.7H84.3v46.7h14.2V188l17,23.3h12.1V164.7z M77.7,164.7H63v46.7h14.7V164.7z
	"/>
<path fill="#FFFFFF" d="M280.2,240.3V287h35.1v-12.6h-20.6v-4.9h18.9v-12.2h-18.9v-4.4h20.6v-12.5H280.2z M258.9,240.3v16.8h-14.8
	v-16.8h-14.7V287h14.7v-17.3h14.8V287h14.7v-46.7H258.9z M182,252.9h13.8V287h14.7v-34.1h13.8v-12.5H182V252.9z"/>
<path fill="#FFFFFF" d="M47.1,333.2l3.9,10.7h-7.8L47.1,333.2z M39.7,316L22,362.6h14.4l2.4-6.8h16.4l2.4,6.8h14.9L55,316H39.7z"/>
<path fill="#FFFFFF" d="M91.2,328.2h6.2c3.8,0,5.2,1.9,5.2,4.8c0,2.8-1.4,4.7-5.2,4.7h-6.2V328.2z M94.6,349.3l7.8,13.4h16.2
	l-9.7-15.6c4.9-2.6,8-7.4,8-14.1c0-10.8-7.3-17-17.6-17H76.7v46.7h14.5v-13.4H94.6z"/>
<path fill="#FFFFFF" d="M428.1,362.6h34.8V350h-20.1V316h-14.7V362.6z M408.2,339.3c0,7-3.6,11.3-8.7,11.3s-8.7-4.3-8.7-11.3
	s3.5-11.3,8.7-11.3S408.2,332.3,408.2,339.3z M423,339.3c0-14-9.6-24.1-23.6-24.1s-23.5,10.1-23.5,24.1c0,13.9,9.5,24.1,23.5,24.1
	S423,353.2,423,339.3z M357.1,339.3c0,7-3.6,11.3-8.7,11.3c-5.2,0-8.7-4.3-8.7-11.3s3.5-11.3,8.7-11.3
	C353.5,328.1,357.1,332.3,357.1,339.3z M371.9,339.3c0-14-9.6-24.1-23.6-24.1s-23.5,10.1-23.5,24.1c0,13.9,9.5,24.1,23.5,24.1
	S371.9,353.2,371.9,339.3z M305,316v16.8h-14.8V316h-14.7v46.7h14.7v-17.3H305v17.3h14.7V316H305z M226.4,339.3
	c0,14,9.5,24.1,23.1,24.1c12.3,0,19.2-7.4,20.8-17h-14.7c-0.8,2.6-3,4.2-6.1,4.2c-5.3,0-8.3-4.9-8.3-11.3c0-6.5,3-11.3,8.3-11.3
	c3.1,0,5.2,1.6,6.1,4.1h14.7c-1.6-9.5-8.5-17-20.8-17C235.9,315.2,226.4,325.3,226.4,339.3z M182,348.3c1.6,9.5,9.6,15.1,21.5,15.1
	c10.5,0,19.2-5.5,19.2-15.6c0-7.3-4.2-11.8-12.5-13.8l-9.7-2.3c-1.4-0.3-2.6-0.9-2.6-2.4c0-1.7,1.7-2.7,4.3-2.7
	c3.1,0,4.9,1.4,5.6,3.6h14.4c-1.1-8.3-7.8-15.1-20.1-15.1c-10.8,0-19.2,6-19.2,15.9c0,8.1,5.2,11.8,12.3,13.2l9.6,2
	c1.8,0.4,3,0.8,3,2.4c0,2.1-2.1,3-4.7,3c-3,0-5.1-1.2-5.8-3.5H182z M120.8,328.5h13.8v34.1h14.7v-34.1h13.8V316h-42.3V328.5z"/>
<path fill="#FFFFFF" d="M253.7,391.6h-10.3l-14.8,6.8v13.7l10.8-5.2v31.3h14.3V391.6z M209.5,407.1c0,2-1.1,3.3-3.3,5.5l-17.3,16.3
	v9.4h35.5v-12.6h-14.7l6.3-5.5c4.6-4,8.6-8.1,8.6-14.3c0-8.9-7.1-15.1-17.9-15.1c-10.6,0-17.2,7.4-18.1,16h15.2
	c0.1-1.4,1.1-2.8,3-2.8C208.4,404.1,209.5,405.4,209.5,407.1z"/>
<path fill="#FFFFFF" d="M259.4,404.6c0.9,5.5,5.6,8.8,12.5,8.8c6.1,0,11.2-3.2,11.2-9.1c0-4.3-2.4-6.9-7.3-8l-5.7-1.3
	c-0.8-0.2-1.5-0.5-1.5-1.4c0-1,1-1.6,2.5-1.6c1.8,0,2.8,0.8,3.3,2.1h8.4c-0.7-4.8-4.6-8.8-11.7-8.8c-6.3,0-11.2,3.5-11.2,9.3
	c0,4.7,3,6.9,7.2,7.7l5.6,1.2c1.1,0.2,1.8,0.5,1.8,1.4c0,1.2-1.2,1.8-2.7,1.8c-1.8,0-3-0.7-3.4-2H259.4z"/>
<polygon fill="#FFFFFF" points="284.8,393 292.8,393 292.8,412.9 301.4,412.9 301.4,393 309.5,393 309.5,385.7 284.8,385.7 "/>
<path fill="#FFFFFF" d="M87.9,490.5c0,14,9.5,24.1,23.1,24.1c12.3,0,19.2-7.4,20.8-17H117c-0.8,2.6-3,4.2-6.1,4.2
	c-5.3,0-8.3-4.9-8.3-11.3c0-6.5,3-11.3,8.3-11.3c3.1,0,5.2,1.6,6.1,4.1h14.7c-1.6-9.5-8.5-17-20.8-17
	C97.4,466.4,87.9,476.6,87.9,490.5z"/>
<path fill="#FFFFFF" d="M294.8,514.6c13.1,0,21.3-7.2,21.3-20.1v-27.4h-14.7v26.1c0,5.2-2.7,8.2-6.6,8.2c-4,0-6.6-3-6.6-8.2v-26.1
	h-14.7v27.4C273.5,507.4,281.8,514.6,294.8,514.6z M226.5,479.7h13.8v34.1H255v-34.1h13.8v-12.5h-42.3V479.7z M221.4,467.2h-14.2
	v21.7l-15.4-21.7h-13.8v46.7h14.2v-23.3l17,23.3h12.1V467.2z M136.9,467.2v46.7H172v-12.6h-20.6v-4.9h18.9v-12.2h-18.9v-4.4H172
	v-12.5H136.9z"/>
<path fill="#FFFFFF" d="M336.7,479.4h6.2c3.8,0,5.2,1.9,5.2,4.8c0,2.8-1.4,4.7-5.2,4.7h-6.2V479.4z M340.1,500.5l7.8,13.4h16.2
	l-9.7-15.6c4.9-2.6,8-7.4,8-14.1c0-10.8-7.3-17-17.6-17h-22.7v46.7h14.5v-13.4H340.1z"/>
<polygon fill="#FFFFFF" points="387.7,483.9 379.4,467.2 363.4,467.2 379.9,498.5 379.9,513.9 394.7,513.9 394.7,498.5 411.4,467.2 
	396.1,467.2 "/>
<rect y="0" fill="none" width="545.7" height="841.9"/>
</svg>
